<mxfile host="app.diagrams.net" agent="Mozilla/5.0 (Windows NT 10.0; Win64; x64) AppleWebKit/537.36 (KHTML, like Gecko) Chrome/127.0.0.0 Safari/537.36" version="24.7.7">
  <diagram name="Página-1" id="H0bE9gB80t1YhXPXf1RE">
    <mxGraphModel dx="10900" dy="5620" grid="1" gridSize="10" guides="1" tooltips="1" connect="1" arrows="1" fold="1" page="0" pageScale="1" pageWidth="827" pageHeight="1169" math="0" shadow="0">
      <root>
        <mxCell id="0" />
        <mxCell id="1" parent="0" />
        <mxCell id="pCujRr_19Z160oxZ67RG-3" value="" style="edgeStyle=orthogonalEdgeStyle;rounded=0;orthogonalLoop=1;jettySize=auto;html=1;" parent="1" source="pCujRr_19Z160oxZ67RG-1" target="pCujRr_19Z160oxZ67RG-2" edge="1">
          <mxGeometry relative="1" as="geometry" />
        </mxCell>
        <mxCell id="pCujRr_19Z160oxZ67RG-1" value="INÍCIO" style="ellipse;whiteSpace=wrap;html=1;fillColor=#f8cecc;strokeColor=#b85450;" parent="1" vertex="1">
          <mxGeometry x="220" y="-120" width="120" height="80" as="geometry" />
        </mxCell>
        <mxCell id="pCujRr_19Z160oxZ67RG-6" value="" style="edgeStyle=orthogonalEdgeStyle;rounded=0;orthogonalLoop=1;jettySize=auto;html=1;" parent="1" source="pCujRr_19Z160oxZ67RG-2" edge="1">
          <mxGeometry relative="1" as="geometry">
            <mxPoint x="280" y="180" as="targetPoint" />
          </mxGeometry>
        </mxCell>
        <mxCell id="pCujRr_19Z160oxZ67RG-2" value="Verificação do estoque" style="rounded=1;whiteSpace=wrap;html=1;fillColor=#dae8fc;strokeColor=#6c8ebf;" parent="1" vertex="1">
          <mxGeometry x="220" y="50" width="120" height="60" as="geometry" />
        </mxCell>
        <mxCell id="pCujRr_19Z160oxZ67RG-10" value="sim" style="edgeStyle=orthogonalEdgeStyle;rounded=0;orthogonalLoop=1;jettySize=auto;html=1;" parent="1" source="pCujRr_19Z160oxZ67RG-4" target="pCujRr_19Z160oxZ67RG-9" edge="1">
          <mxGeometry relative="1" as="geometry" />
        </mxCell>
        <mxCell id="pCujRr_19Z160oxZ67RG-21" value="não" style="edgeStyle=orthogonalEdgeStyle;rounded=0;orthogonalLoop=1;jettySize=auto;html=1;exitX=1;exitY=0.5;exitDx=0;exitDy=0;entryX=1;entryY=0.5;entryDx=0;entryDy=0;" parent="1" source="pCujRr_19Z160oxZ67RG-4" target="pCujRr_19Z160oxZ67RG-15" edge="1">
          <mxGeometry relative="1" as="geometry">
            <Array as="points">
              <mxPoint x="400" y="220" />
              <mxPoint x="400" y="810" />
            </Array>
          </mxGeometry>
        </mxCell>
        <mxCell id="pCujRr_19Z160oxZ67RG-4" value="&lt;div&gt;&lt;br&gt;&lt;/div&gt;Materiais em falta?" style="rhombus;whiteSpace=wrap;html=1;fillColor=#d5e8d4;strokeColor=#82b366;" parent="1" vertex="1">
          <mxGeometry x="240" y="180" width="80" height="80" as="geometry" />
        </mxCell>
        <mxCell id="pCujRr_19Z160oxZ67RG-12" value="" style="edgeStyle=orthogonalEdgeStyle;rounded=0;orthogonalLoop=1;jettySize=auto;html=1;" parent="1" source="pCujRr_19Z160oxZ67RG-9" target="pCujRr_19Z160oxZ67RG-11" edge="1">
          <mxGeometry relative="1" as="geometry" />
        </mxCell>
        <mxCell id="pCujRr_19Z160oxZ67RG-9" value="Listar materias" style="rounded=1;whiteSpace=wrap;html=1;fillColor=#dae8fc;strokeColor=#6c8ebf;" parent="1" vertex="1">
          <mxGeometry x="220" y="350" width="120" height="60" as="geometry" />
        </mxCell>
        <mxCell id="pCujRr_19Z160oxZ67RG-14" value="" style="edgeStyle=orthogonalEdgeStyle;rounded=0;orthogonalLoop=1;jettySize=auto;html=1;" parent="1" source="pCujRr_19Z160oxZ67RG-11" edge="1">
          <mxGeometry relative="1" as="geometry">
            <mxPoint x="280" y="630" as="targetPoint" />
          </mxGeometry>
        </mxCell>
        <mxCell id="pCujRr_19Z160oxZ67RG-11" value="fazer encomenda" style="rounded=1;whiteSpace=wrap;html=1;fillColor=#dae8fc;strokeColor=#6c8ebf;" parent="1" vertex="1">
          <mxGeometry x="220" y="490" width="120" height="60" as="geometry" />
        </mxCell>
        <mxCell id="pCujRr_19Z160oxZ67RG-15" value="FIM" style="ellipse;whiteSpace=wrap;html=1;fillColor=#f8cecc;strokeColor=#b85450;" parent="1" vertex="1">
          <mxGeometry x="220" y="770" width="120" height="80" as="geometry" />
        </mxCell>
        <mxCell id="pCujRr_19Z160oxZ67RG-17" value="" style="edgeStyle=orthogonalEdgeStyle;rounded=0;orthogonalLoop=1;jettySize=auto;html=1;" parent="1" source="pCujRr_19Z160oxZ67RG-16" target="pCujRr_19Z160oxZ67RG-15" edge="1">
          <mxGeometry relative="1" as="geometry" />
        </mxCell>
        <mxCell id="pCujRr_19Z160oxZ67RG-16" value="Atualizar estoque" style="rounded=1;whiteSpace=wrap;html=1;fillColor=#dae8fc;strokeColor=#6c8ebf;" parent="1" vertex="1">
          <mxGeometry x="220" y="630" width="120" height="60" as="geometry" />
        </mxCell>
        <mxCell id="pCujRr_19Z160oxZ67RG-22" value="&lt;h1&gt;&lt;i&gt;&lt;u&gt;&lt;font style=&quot;font-size: 43px;&quot;&gt;Compra&lt;/font&gt;&lt;/u&gt;&lt;/i&gt;&lt;/h1&gt;" style="swimlane;whiteSpace=wrap;html=1;startSize=80;" parent="1" vertex="1">
          <mxGeometry x="30" y="-230" width="500" height="1120" as="geometry" />
        </mxCell>
        <mxCell id="pCujRr_19Z160oxZ67RG-25" value="" style="edgeStyle=orthogonalEdgeStyle;rounded=0;orthogonalLoop=1;jettySize=auto;html=1;" parent="1" source="pCujRr_19Z160oxZ67RG-23" target="pCujRr_19Z160oxZ67RG-24" edge="1">
          <mxGeometry relative="1" as="geometry" />
        </mxCell>
        <mxCell id="pCujRr_19Z160oxZ67RG-23" value="INÍCIO" style="ellipse;whiteSpace=wrap;html=1;fillColor=#f8cecc;strokeColor=#b85450;" parent="1" vertex="1">
          <mxGeometry x="790" y="-120" width="120" height="80" as="geometry" />
        </mxCell>
        <mxCell id="pCujRr_19Z160oxZ67RG-27" value="" style="edgeStyle=orthogonalEdgeStyle;rounded=0;orthogonalLoop=1;jettySize=auto;html=1;" parent="1" source="pCujRr_19Z160oxZ67RG-24" target="pCujRr_19Z160oxZ67RG-26" edge="1">
          <mxGeometry relative="1" as="geometry" />
        </mxCell>
        <mxCell id="pCujRr_19Z160oxZ67RG-24" value="Adicionar material no estoque" style="rounded=1;whiteSpace=wrap;html=1;fillColor=#dae8fc;strokeColor=#6c8ebf;" parent="1" vertex="1">
          <mxGeometry x="790" y="50" width="120" height="60" as="geometry" />
        </mxCell>
        <mxCell id="pCujRr_19Z160oxZ67RG-29" value="sim" style="edgeStyle=orthogonalEdgeStyle;rounded=0;orthogonalLoop=1;jettySize=auto;html=1;" parent="1" source="pCujRr_19Z160oxZ67RG-26" target="pCujRr_19Z160oxZ67RG-28" edge="1">
          <mxGeometry relative="1" as="geometry" />
        </mxCell>
        <mxCell id="pCujRr_19Z160oxZ67RG-31" value="não" style="edgeStyle=orthogonalEdgeStyle;rounded=0;orthogonalLoop=1;jettySize=auto;html=1;" parent="1" source="pCujRr_19Z160oxZ67RG-26" target="pCujRr_19Z160oxZ67RG-30" edge="1">
          <mxGeometry relative="1" as="geometry" />
        </mxCell>
        <mxCell id="pCujRr_19Z160oxZ67RG-26" value="Material suficiente?" style="rhombus;whiteSpace=wrap;html=1;fillColor=#d5e8d4;strokeColor=#82b366;" parent="1" vertex="1">
          <mxGeometry x="810" y="200" width="80" height="80" as="geometry" />
        </mxCell>
        <mxCell id="pCujRr_19Z160oxZ67RG-28" value="FIM" style="ellipse;whiteSpace=wrap;html=1;fillColor=#f8cecc;strokeColor=#b85450;" parent="1" vertex="1">
          <mxGeometry x="790" y="370" width="120" height="80" as="geometry" />
        </mxCell>
        <mxCell id="pCujRr_19Z160oxZ67RG-32" style="edgeStyle=orthogonalEdgeStyle;rounded=0;orthogonalLoop=1;jettySize=auto;html=1;exitX=0.5;exitY=1;exitDx=0;exitDy=0;entryX=1;entryY=0.5;entryDx=0;entryDy=0;" parent="1" source="pCujRr_19Z160oxZ67RG-30" target="pCujRr_19Z160oxZ67RG-28" edge="1">
          <mxGeometry relative="1" as="geometry" />
        </mxCell>
        <mxCell id="pCujRr_19Z160oxZ67RG-30" value="retornar ao sistema de compras" style="rounded=1;whiteSpace=wrap;html=1;fillColor=#dae8fc;strokeColor=#6c8ebf;" parent="1" vertex="1">
          <mxGeometry x="950" y="210" width="120" height="60" as="geometry" />
        </mxCell>
        <mxCell id="pCujRr_19Z160oxZ67RG-33" value="&lt;h1&gt;&lt;span style=&quot;font-size: 43px;&quot;&gt;&lt;i&gt;&lt;u&gt;analize&lt;/u&gt;&lt;/i&gt;&lt;/span&gt;&lt;/h1&gt;" style="swimlane;whiteSpace=wrap;html=1;startSize=80;" parent="1" vertex="1">
          <mxGeometry x="620" y="-230" width="500" height="1120" as="geometry" />
        </mxCell>
        <mxCell id="pCujRr_19Z160oxZ67RG-36" value="" style="edgeStyle=orthogonalEdgeStyle;rounded=0;orthogonalLoop=1;jettySize=auto;html=1;" parent="1" source="pCujRr_19Z160oxZ67RG-34" target="pCujRr_19Z160oxZ67RG-35" edge="1">
          <mxGeometry relative="1" as="geometry" />
        </mxCell>
        <mxCell id="pCujRr_19Z160oxZ67RG-34" value="INÍCIO" style="ellipse;whiteSpace=wrap;html=1;fillColor=#f8cecc;strokeColor=#b85450;" parent="1" vertex="1">
          <mxGeometry x="1430" y="-120" width="120" height="80" as="geometry" />
        </mxCell>
        <mxCell id="pCujRr_19Z160oxZ67RG-38" value="" style="edgeStyle=orthogonalEdgeStyle;rounded=0;orthogonalLoop=1;jettySize=auto;html=1;" parent="1" source="pCujRr_19Z160oxZ67RG-35" target="pCujRr_19Z160oxZ67RG-37" edge="1">
          <mxGeometry relative="1" as="geometry" />
        </mxCell>
        <mxCell id="pCujRr_19Z160oxZ67RG-35" value="Preparar materiais par confecção" style="rounded=1;whiteSpace=wrap;html=1;fillColor=#dae8fc;strokeColor=#6c8ebf;" parent="1" vertex="1">
          <mxGeometry x="1430" y="50" width="120" height="60" as="geometry" />
        </mxCell>
        <mxCell id="pCujRr_19Z160oxZ67RG-40" value="" style="edgeStyle=orthogonalEdgeStyle;rounded=0;orthogonalLoop=1;jettySize=auto;html=1;" parent="1" source="pCujRr_19Z160oxZ67RG-37" target="pCujRr_19Z160oxZ67RG-39" edge="1">
          <mxGeometry relative="1" as="geometry" />
        </mxCell>
        <mxCell id="pCujRr_19Z160oxZ67RG-37" value="Separar materiais por qualidade" style="rounded=1;whiteSpace=wrap;html=1;fillColor=#dae8fc;strokeColor=#6c8ebf;" parent="1" vertex="1">
          <mxGeometry x="1430" y="190" width="120" height="60" as="geometry" />
        </mxCell>
        <mxCell id="pCujRr_19Z160oxZ67RG-42" value="sim" style="edgeStyle=orthogonalEdgeStyle;rounded=0;orthogonalLoop=1;jettySize=auto;html=1;" parent="1" source="pCujRr_19Z160oxZ67RG-39" target="pCujRr_19Z160oxZ67RG-41" edge="1">
          <mxGeometry relative="1" as="geometry" />
        </mxCell>
        <mxCell id="pCujRr_19Z160oxZ67RG-47" value="" style="edgeStyle=orthogonalEdgeStyle;rounded=0;orthogonalLoop=1;jettySize=auto;html=1;" parent="1" source="pCujRr_19Z160oxZ67RG-39" target="pCujRr_19Z160oxZ67RG-46" edge="1">
          <mxGeometry relative="1" as="geometry" />
        </mxCell>
        <mxCell id="pCujRr_19Z160oxZ67RG-39" value="Material é bom?" style="rhombus;whiteSpace=wrap;html=1;fillColor=#d5e8d4;strokeColor=#82b366;" parent="1" vertex="1">
          <mxGeometry x="1450" y="330" width="80" height="80" as="geometry" />
        </mxCell>
        <mxCell id="pCujRr_19Z160oxZ67RG-44" value="" style="edgeStyle=orthogonalEdgeStyle;rounded=0;orthogonalLoop=1;jettySize=auto;html=1;" parent="1" source="pCujRr_19Z160oxZ67RG-41" edge="1">
          <mxGeometry relative="1" as="geometry">
            <mxPoint x="1490" y="640" as="targetPoint" />
          </mxGeometry>
        </mxCell>
        <mxCell id="pCujRr_19Z160oxZ67RG-41" value="Enviar a Area de confecção" style="rounded=1;whiteSpace=wrap;html=1;fillColor=#dae8fc;strokeColor=#6c8ebf;" parent="1" vertex="1">
          <mxGeometry x="1430" y="500" width="120" height="60" as="geometry" />
        </mxCell>
        <mxCell id="pCujRr_19Z160oxZ67RG-45" value="FIM" style="ellipse;whiteSpace=wrap;html=1;fillColor=#f8cecc;strokeColor=#b85450;" parent="1" vertex="1">
          <mxGeometry x="1430" y="640" width="120" height="80" as="geometry" />
        </mxCell>
        <mxCell id="pCujRr_19Z160oxZ67RG-48" style="edgeStyle=orthogonalEdgeStyle;rounded=0;orthogonalLoop=1;jettySize=auto;html=1;exitX=0.5;exitY=1;exitDx=0;exitDy=0;entryX=1;entryY=0.5;entryDx=0;entryDy=0;" parent="1" source="pCujRr_19Z160oxZ67RG-46" target="pCujRr_19Z160oxZ67RG-45" edge="1">
          <mxGeometry relative="1" as="geometry" />
        </mxCell>
        <mxCell id="pCujRr_19Z160oxZ67RG-46" value="Enviar a area de descarte" style="rounded=1;whiteSpace=wrap;html=1;fillColor=#dae8fc;strokeColor=#6c8ebf;" parent="1" vertex="1">
          <mxGeometry x="1590" y="340" width="120" height="60" as="geometry" />
        </mxCell>
        <mxCell id="pCujRr_19Z160oxZ67RG-49" value="&lt;h1&gt;&lt;span style=&quot;font-size: 43px;&quot;&gt;&lt;i&gt;&lt;u&gt;Edição&lt;/u&gt;&lt;/i&gt;&lt;/span&gt;&lt;/h1&gt;" style="swimlane;whiteSpace=wrap;html=1;startSize=80;" parent="1" vertex="1">
          <mxGeometry x="1240" y="-230" width="500" height="1120" as="geometry" />
        </mxCell>
        <mxCell id="pCujRr_19Z160oxZ67RG-52" value="" style="edgeStyle=orthogonalEdgeStyle;rounded=0;orthogonalLoop=1;jettySize=auto;html=1;" parent="1" source="pCujRr_19Z160oxZ67RG-50" target="pCujRr_19Z160oxZ67RG-51" edge="1">
          <mxGeometry relative="1" as="geometry" />
        </mxCell>
        <mxCell id="pCujRr_19Z160oxZ67RG-50" value="INÍCIO" style="ellipse;whiteSpace=wrap;html=1;fillColor=#f8cecc;strokeColor=#b85450;" parent="1" vertex="1">
          <mxGeometry x="2180" y="-120" width="120" height="80" as="geometry" />
        </mxCell>
        <mxCell id="pCujRr_19Z160oxZ67RG-54" value="" style="edgeStyle=orthogonalEdgeStyle;rounded=0;orthogonalLoop=1;jettySize=auto;html=1;" parent="1" source="pCujRr_19Z160oxZ67RG-51" target="pCujRr_19Z160oxZ67RG-53" edge="1">
          <mxGeometry relative="1" as="geometry" />
        </mxCell>
        <mxCell id="pCujRr_19Z160oxZ67RG-51" value="Material ruim ou indesejado" style="rounded=1;whiteSpace=wrap;html=1;fillColor=#dae8fc;strokeColor=#6c8ebf;" parent="1" vertex="1">
          <mxGeometry x="2180" y="50" width="120" height="60" as="geometry" />
        </mxCell>
        <mxCell id="pCujRr_19Z160oxZ67RG-56" value="" style="edgeStyle=orthogonalEdgeStyle;rounded=0;orthogonalLoop=1;jettySize=auto;html=1;" parent="1" source="pCujRr_19Z160oxZ67RG-53" target="pCujRr_19Z160oxZ67RG-55" edge="1">
          <mxGeometry relative="1" as="geometry" />
        </mxCell>
        <mxCell id="pCujRr_19Z160oxZ67RG-60" value="" style="edgeStyle=orthogonalEdgeStyle;rounded=0;orthogonalLoop=1;jettySize=auto;html=1;" parent="1" source="pCujRr_19Z160oxZ67RG-53" target="pCujRr_19Z160oxZ67RG-59" edge="1">
          <mxGeometry relative="1" as="geometry" />
        </mxCell>
        <mxCell id="pCujRr_19Z160oxZ67RG-53" value="Descartar&lt;div&gt;material?&lt;/div&gt;" style="rhombus;whiteSpace=wrap;html=1;fillColor=#d5e8d4;strokeColor=#82b366;" parent="1" vertex="1">
          <mxGeometry x="2200" y="200" width="80" height="80" as="geometry" />
        </mxCell>
        <mxCell id="pCujRr_19Z160oxZ67RG-58" value="" style="edgeStyle=orthogonalEdgeStyle;rounded=0;orthogonalLoop=1;jettySize=auto;html=1;" parent="1" source="pCujRr_19Z160oxZ67RG-55" target="pCujRr_19Z160oxZ67RG-57" edge="1">
          <mxGeometry relative="1" as="geometry" />
        </mxCell>
        <mxCell id="pCujRr_19Z160oxZ67RG-55" value="cancelar compra" style="rounded=1;whiteSpace=wrap;html=1;fillColor=#dae8fc;strokeColor=#6c8ebf;" parent="1" vertex="1">
          <mxGeometry x="2180" y="370" width="120" height="60" as="geometry" />
        </mxCell>
        <mxCell id="pCujRr_19Z160oxZ67RG-57" value="FIM" style="ellipse;whiteSpace=wrap;html=1;fillColor=#f8cecc;strokeColor=#b85450;" parent="1" vertex="1">
          <mxGeometry x="2180" y="520" width="120" height="80" as="geometry" />
        </mxCell>
        <mxCell id="pCujRr_19Z160oxZ67RG-61" style="edgeStyle=orthogonalEdgeStyle;rounded=0;orthogonalLoop=1;jettySize=auto;html=1;exitX=0.5;exitY=1;exitDx=0;exitDy=0;entryX=1;entryY=0.5;entryDx=0;entryDy=0;" parent="1" source="pCujRr_19Z160oxZ67RG-59" target="pCujRr_19Z160oxZ67RG-57" edge="1">
          <mxGeometry relative="1" as="geometry" />
        </mxCell>
        <mxCell id="pCujRr_19Z160oxZ67RG-59" value="Devolver ao estoque" style="rounded=1;whiteSpace=wrap;html=1;fillColor=#dae8fc;strokeColor=#6c8ebf;" parent="1" vertex="1">
          <mxGeometry x="2340" y="210" width="120" height="60" as="geometry" />
        </mxCell>
        <mxCell id="pCujRr_19Z160oxZ67RG-62" value="&lt;h1&gt;&lt;span style=&quot;font-size: 43px;&quot;&gt;&lt;i&gt;&lt;u&gt;Descarte&lt;/u&gt;&lt;/i&gt;&lt;/span&gt;&lt;/h1&gt;" style="swimlane;whiteSpace=wrap;html=1;startSize=80;" parent="1" vertex="1">
          <mxGeometry x="1990" y="-230" width="500" height="1120" as="geometry" />
        </mxCell>
        <mxCell id="Lzxys33Jdj1KvuU7-6Vl-3" value="" style="edgeStyle=orthogonalEdgeStyle;rounded=0;orthogonalLoop=1;jettySize=auto;html=1;" parent="1" source="Lzxys33Jdj1KvuU7-6Vl-1" target="Lzxys33Jdj1KvuU7-6Vl-2" edge="1">
          <mxGeometry relative="1" as="geometry" />
        </mxCell>
        <mxCell id="Lzxys33Jdj1KvuU7-6Vl-1" value="INICÍO" style="ellipse;whiteSpace=wrap;html=1;fillColor=#f8cecc;strokeColor=#b85450;" parent="1" vertex="1">
          <mxGeometry x="100" y="1120" width="120" height="80" as="geometry" />
        </mxCell>
        <mxCell id="uNB4d4PE5i07L3fqMLBc-2" value="" style="edgeStyle=orthogonalEdgeStyle;rounded=0;orthogonalLoop=1;jettySize=auto;html=1;" parent="1" source="Lzxys33Jdj1KvuU7-6Vl-2" target="uNB4d4PE5i07L3fqMLBc-1" edge="1">
          <mxGeometry relative="1" as="geometry" />
        </mxCell>
        <mxCell id="Lzxys33Jdj1KvuU7-6Vl-2" value="ABRIR CLIENT" style="rounded=1;whiteSpace=wrap;html=1;fillColor=#dae8fc;strokeColor=#6c8ebf;" parent="1" vertex="1">
          <mxGeometry x="100" y="1270" width="120" height="60" as="geometry" />
        </mxCell>
        <mxCell id="uNB4d4PE5i07L3fqMLBc-4" value="" style="edgeStyle=orthogonalEdgeStyle;rounded=0;orthogonalLoop=1;jettySize=auto;html=1;" parent="1" source="uNB4d4PE5i07L3fqMLBc-1" edge="1">
          <mxGeometry relative="1" as="geometry">
            <mxPoint x="160" y="1540" as="targetPoint" />
          </mxGeometry>
        </mxCell>
        <mxCell id="uNB4d4PE5i07L3fqMLBc-1" value="CADASTRAR" style="rounded=1;whiteSpace=wrap;html=1;fillColor=#dae8fc;strokeColor=#6c8ebf;" parent="1" vertex="1">
          <mxGeometry x="100" y="1400" width="120" height="60" as="geometry" />
        </mxCell>
        <mxCell id="U2K5C7ySNH7hzDEGodIG-2" value="não" style="edgeStyle=orthogonalEdgeStyle;rounded=0;orthogonalLoop=1;jettySize=auto;html=1;exitX=1;exitY=0.5;exitDx=0;exitDy=0;entryX=0.5;entryY=1;entryDx=0;entryDy=0;" parent="1" source="uNB4d4PE5i07L3fqMLBc-5" target="U2K5C7ySNH7hzDEGodIG-1" edge="1">
          <mxGeometry relative="1" as="geometry" />
        </mxCell>
        <mxCell id="U2K5C7ySNH7hzDEGodIG-5" value="SIM" style="edgeStyle=orthogonalEdgeStyle;rounded=0;orthogonalLoop=1;jettySize=auto;html=1;" parent="1" source="uNB4d4PE5i07L3fqMLBc-5" target="U2K5C7ySNH7hzDEGodIG-4" edge="1">
          <mxGeometry relative="1" as="geometry" />
        </mxCell>
        <mxCell id="uNB4d4PE5i07L3fqMLBc-5" value="tem e-mail?" style="rhombus;whiteSpace=wrap;html=1;fillColor=#d5e8d4;strokeColor=#82b366;" parent="1" vertex="1">
          <mxGeometry x="120" y="1540" width="80" height="80" as="geometry" />
        </mxCell>
        <mxCell id="U2K5C7ySNH7hzDEGodIG-3" style="edgeStyle=orthogonalEdgeStyle;rounded=0;orthogonalLoop=1;jettySize=auto;html=1;exitX=0.5;exitY=0;exitDx=0;exitDy=0;entryX=1;entryY=0.5;entryDx=0;entryDy=0;" parent="1" source="U2K5C7ySNH7hzDEGodIG-1" target="uNB4d4PE5i07L3fqMLBc-1" edge="1">
          <mxGeometry relative="1" as="geometry" />
        </mxCell>
        <mxCell id="U2K5C7ySNH7hzDEGodIG-1" value="mostrar erro" style="rounded=1;whiteSpace=wrap;html=1;fillColor=#fff2cc;strokeColor=#d6b656;" parent="1" vertex="1">
          <mxGeometry x="280" y="1470" width="120" height="60" as="geometry" />
        </mxCell>
        <mxCell id="U2K5C7ySNH7hzDEGodIG-7" value="" style="edgeStyle=orthogonalEdgeStyle;rounded=0;orthogonalLoop=1;jettySize=auto;html=1;" parent="1" source="U2K5C7ySNH7hzDEGodIG-4" target="U2K5C7ySNH7hzDEGodIG-6" edge="1">
          <mxGeometry relative="1" as="geometry" />
        </mxCell>
        <mxCell id="U2K5C7ySNH7hzDEGodIG-4" value="MOSTRAR SUCESSO" style="rounded=1;whiteSpace=wrap;html=1;fillColor=#e1d5e7;strokeColor=#9673a6;" parent="1" vertex="1">
          <mxGeometry x="100" y="1710" width="120" height="60" as="geometry" />
        </mxCell>
        <mxCell id="U2K5C7ySNH7hzDEGodIG-9" value="" style="edgeStyle=orthogonalEdgeStyle;rounded=0;orthogonalLoop=1;jettySize=auto;html=1;" parent="1" source="U2K5C7ySNH7hzDEGodIG-6" edge="1">
          <mxGeometry relative="1" as="geometry">
            <mxPoint x="160" y="1980" as="targetPoint" />
          </mxGeometry>
        </mxCell>
        <mxCell id="U2K5C7ySNH7hzDEGodIG-6" value="INSERIR SENHA" style="rounded=1;whiteSpace=wrap;html=1;fillColor=#dae8fc;strokeColor=#6c8ebf;" parent="1" vertex="1">
          <mxGeometry x="100" y="1850" width="120" height="60" as="geometry" />
        </mxCell>
        <mxCell id="U2K5C7ySNH7hzDEGodIG-11" value="NÃO" style="edgeStyle=orthogonalEdgeStyle;rounded=0;orthogonalLoop=1;jettySize=auto;html=1;exitX=1;exitY=0.5;exitDx=0;exitDy=0;entryX=1;entryY=0.5;entryDx=0;entryDy=0;" parent="1" source="U2K5C7ySNH7hzDEGodIG-10" target="U2K5C7ySNH7hzDEGodIG-1" edge="1">
          <mxGeometry relative="1" as="geometry">
            <Array as="points">
              <mxPoint x="430" y="2020" />
              <mxPoint x="430" y="1500" />
            </Array>
          </mxGeometry>
        </mxCell>
        <mxCell id="U2K5C7ySNH7hzDEGodIG-13" value="SIM" style="edgeStyle=orthogonalEdgeStyle;rounded=0;orthogonalLoop=1;jettySize=auto;html=1;" parent="1" source="U2K5C7ySNH7hzDEGodIG-10" target="U2K5C7ySNH7hzDEGodIG-12" edge="1">
          <mxGeometry relative="1" as="geometry" />
        </mxCell>
        <mxCell id="U2K5C7ySNH7hzDEGodIG-10" value="TEM SENHA" style="rhombus;whiteSpace=wrap;html=1;fillColor=#d5e8d4;strokeColor=#82b366;" parent="1" vertex="1">
          <mxGeometry x="120" y="1980" width="80" height="80" as="geometry" />
        </mxCell>
        <mxCell id="U2K5C7ySNH7hzDEGodIG-15" value="" style="edgeStyle=orthogonalEdgeStyle;rounded=0;orthogonalLoop=1;jettySize=auto;html=1;" parent="1" source="U2K5C7ySNH7hzDEGodIG-12" target="U2K5C7ySNH7hzDEGodIG-14" edge="1">
          <mxGeometry relative="1" as="geometry" />
        </mxCell>
        <mxCell id="U2K5C7ySNH7hzDEGodIG-12" value="MOSTRAR SUCESSO" style="rounded=1;whiteSpace=wrap;html=1;fillColor=#e1d5e7;strokeColor=#9673a6;" parent="1" vertex="1">
          <mxGeometry x="100" y="2150" width="120" height="60" as="geometry" />
        </mxCell>
        <mxCell id="U2K5C7ySNH7hzDEGodIG-17" value="" style="edgeStyle=orthogonalEdgeStyle;rounded=0;orthogonalLoop=1;jettySize=auto;html=1;" parent="1" source="U2K5C7ySNH7hzDEGodIG-14" target="U2K5C7ySNH7hzDEGodIG-16" edge="1">
          <mxGeometry relative="1" as="geometry" />
        </mxCell>
        <mxCell id="U2K5C7ySNH7hzDEGodIG-14" value="CADASTRO COMPLETO" style="rounded=1;whiteSpace=wrap;html=1;fillColor=#dae8fc;strokeColor=#6c8ebf;" parent="1" vertex="1">
          <mxGeometry x="100" y="2300" width="120" height="60" as="geometry" />
        </mxCell>
        <mxCell id="U2K5C7ySNH7hzDEGodIG-16" value="FIM" style="ellipse;whiteSpace=wrap;html=1;fillColor=#f8cecc;strokeColor=#b85450;" parent="1" vertex="1">
          <mxGeometry x="100" y="2450" width="120" height="80" as="geometry" />
        </mxCell>
        <mxCell id="U2K5C7ySNH7hzDEGodIG-20" value="" style="edgeStyle=orthogonalEdgeStyle;rounded=0;orthogonalLoop=1;jettySize=auto;html=1;" parent="1" source="U2K5C7ySNH7hzDEGodIG-18" target="U2K5C7ySNH7hzDEGodIG-19" edge="1">
          <mxGeometry relative="1" as="geometry" />
        </mxCell>
        <mxCell id="U2K5C7ySNH7hzDEGodIG-18" value="INICIO" style="ellipse;whiteSpace=wrap;html=1;fillColor=#f8cecc;strokeColor=#b85450;" parent="1" vertex="1">
          <mxGeometry x="740" y="1130" width="120" height="80" as="geometry" />
        </mxCell>
        <mxCell id="U2K5C7ySNH7hzDEGodIG-22" value="" style="edgeStyle=orthogonalEdgeStyle;rounded=0;orthogonalLoop=1;jettySize=auto;html=1;" parent="1" source="U2K5C7ySNH7hzDEGodIG-19" target="U2K5C7ySNH7hzDEGodIG-21" edge="1">
          <mxGeometry relative="1" as="geometry" />
        </mxCell>
        <mxCell id="U2K5C7ySNH7hzDEGodIG-19" value="RESGATAR DADOS DO CLIENTE" style="rounded=1;whiteSpace=wrap;html=1;fillColor=#dae8fc;strokeColor=#6c8ebf;" parent="1" vertex="1">
          <mxGeometry x="740" y="1300" width="120" height="60" as="geometry" />
        </mxCell>
        <mxCell id="U2K5C7ySNH7hzDEGodIG-24" value="NÃO" style="edgeStyle=orthogonalEdgeStyle;rounded=0;orthogonalLoop=1;jettySize=auto;html=1;exitX=1;exitY=0.5;exitDx=0;exitDy=0;entryX=0.5;entryY=1;entryDx=0;entryDy=0;" parent="1" source="U2K5C7ySNH7hzDEGodIG-21" target="U2K5C7ySNH7hzDEGodIG-23" edge="1">
          <mxGeometry relative="1" as="geometry" />
        </mxCell>
        <mxCell id="U2K5C7ySNH7hzDEGodIG-27" value="SIM" style="edgeStyle=orthogonalEdgeStyle;rounded=0;orthogonalLoop=1;jettySize=auto;html=1;" parent="1" source="U2K5C7ySNH7hzDEGodIG-21" target="U2K5C7ySNH7hzDEGodIG-26" edge="1">
          <mxGeometry relative="1" as="geometry" />
        </mxCell>
        <mxCell id="U2K5C7ySNH7hzDEGodIG-21" value="DADOS COMPLETOS?" style="rhombus;whiteSpace=wrap;html=1;fillColor=#d5e8d4;strokeColor=#82b366;" parent="1" vertex="1">
          <mxGeometry x="745" y="1450" width="110" height="110" as="geometry" />
        </mxCell>
        <mxCell id="U2K5C7ySNH7hzDEGodIG-25" style="edgeStyle=orthogonalEdgeStyle;rounded=0;orthogonalLoop=1;jettySize=auto;html=1;exitX=0.5;exitY=0;exitDx=0;exitDy=0;entryX=1;entryY=0.5;entryDx=0;entryDy=0;" parent="1" source="U2K5C7ySNH7hzDEGodIG-23" target="U2K5C7ySNH7hzDEGodIG-19" edge="1">
          <mxGeometry relative="1" as="geometry" />
        </mxCell>
        <mxCell id="U2K5C7ySNH7hzDEGodIG-23" value="MOSTRAR ERRO" style="rounded=1;whiteSpace=wrap;html=1;fillColor=#fff2cc;strokeColor=#d6b656;" parent="1" vertex="1">
          <mxGeometry x="930" y="1390" width="120" height="60" as="geometry" />
        </mxCell>
        <mxCell id="U2K5C7ySNH7hzDEGodIG-29" value="" style="edgeStyle=orthogonalEdgeStyle;rounded=0;orthogonalLoop=1;jettySize=auto;html=1;" parent="1" source="U2K5C7ySNH7hzDEGodIG-26" target="U2K5C7ySNH7hzDEGodIG-28" edge="1">
          <mxGeometry relative="1" as="geometry" />
        </mxCell>
        <mxCell id="U2K5C7ySNH7hzDEGodIG-26" value="MOSTRAR SUCESSO" style="rounded=1;whiteSpace=wrap;html=1;fillColor=#e1d5e7;strokeColor=#9673a6;" parent="1" vertex="1">
          <mxGeometry x="740" y="1650" width="120" height="60" as="geometry" />
        </mxCell>
        <mxCell id="U2K5C7ySNH7hzDEGodIG-31" value="" style="edgeStyle=orthogonalEdgeStyle;rounded=0;orthogonalLoop=1;jettySize=auto;html=1;" parent="1" source="U2K5C7ySNH7hzDEGodIG-28" target="U2K5C7ySNH7hzDEGodIG-30" edge="1">
          <mxGeometry relative="1" as="geometry" />
        </mxCell>
        <mxCell id="U2K5C7ySNH7hzDEGodIG-28" value="REVELAR AO CLIENTE" style="rounded=1;whiteSpace=wrap;html=1;fillColor=#dae8fc;strokeColor=#6c8ebf;" parent="1" vertex="1">
          <mxGeometry x="740" y="1790" width="120" height="60" as="geometry" />
        </mxCell>
        <mxCell id="U2K5C7ySNH7hzDEGodIG-30" value="FIM" style="ellipse;whiteSpace=wrap;html=1;fillColor=#f8cecc;strokeColor=#b85450;" parent="1" vertex="1">
          <mxGeometry x="740" y="1920" width="120" height="80" as="geometry" />
        </mxCell>
        <mxCell id="_nmo6AtYuHJvuhX7b1Vl-3" value="" style="edgeStyle=orthogonalEdgeStyle;rounded=0;orthogonalLoop=1;jettySize=auto;html=1;" parent="1" source="_nmo6AtYuHJvuhX7b1Vl-1" target="_nmo6AtYuHJvuhX7b1Vl-2" edge="1">
          <mxGeometry relative="1" as="geometry" />
        </mxCell>
        <mxCell id="_nmo6AtYuHJvuhX7b1Vl-1" value="INICIO" style="ellipse;whiteSpace=wrap;html=1;fillColor=#f8cecc;strokeColor=#b85450;" parent="1" vertex="1">
          <mxGeometry x="1310" y="1120" width="120" height="80" as="geometry" />
        </mxCell>
        <mxCell id="_nmo6AtYuHJvuhX7b1Vl-5" value="" style="edgeStyle=orthogonalEdgeStyle;rounded=0;orthogonalLoop=1;jettySize=auto;html=1;" parent="1" source="_nmo6AtYuHJvuhX7b1Vl-2" target="_nmo6AtYuHJvuhX7b1Vl-4" edge="1">
          <mxGeometry relative="1" as="geometry" />
        </mxCell>
        <mxCell id="_nmo6AtYuHJvuhX7b1Vl-2" value="ENTRAR NA CONTA" style="rounded=1;whiteSpace=wrap;html=1;fillColor=#dae8fc;strokeColor=#6c8ebf;" parent="1" vertex="1">
          <mxGeometry x="1310" y="1290" width="120" height="60" as="geometry" />
        </mxCell>
        <mxCell id="_nmo6AtYuHJvuhX7b1Vl-7" value="" style="edgeStyle=orthogonalEdgeStyle;rounded=0;orthogonalLoop=1;jettySize=auto;html=1;" parent="1" source="_nmo6AtYuHJvuhX7b1Vl-4" target="_nmo6AtYuHJvuhX7b1Vl-6" edge="1">
          <mxGeometry relative="1" as="geometry" />
        </mxCell>
        <mxCell id="_nmo6AtYuHJvuhX7b1Vl-4" value="ALTERAR DADOS" style="rounded=1;whiteSpace=wrap;html=1;fillColor=#dae8fc;strokeColor=#6c8ebf;" parent="1" vertex="1">
          <mxGeometry x="1310" y="1430" width="120" height="60" as="geometry" />
        </mxCell>
        <mxCell id="_nmo6AtYuHJvuhX7b1Vl-9" value="" style="edgeStyle=orthogonalEdgeStyle;rounded=0;orthogonalLoop=1;jettySize=auto;html=1;" parent="1" source="_nmo6AtYuHJvuhX7b1Vl-6" target="_nmo6AtYuHJvuhX7b1Vl-8" edge="1">
          <mxGeometry relative="1" as="geometry" />
        </mxCell>
        <mxCell id="_nmo6AtYuHJvuhX7b1Vl-6" value="ALTERAR NOME" style="rounded=1;whiteSpace=wrap;html=1;fillColor=#dae8fc;strokeColor=#6c8ebf;" parent="1" vertex="1">
          <mxGeometry x="1310" y="1570" width="120" height="60" as="geometry" />
        </mxCell>
        <mxCell id="_nmo6AtYuHJvuhX7b1Vl-13" value="SIM" style="edgeStyle=orthogonalEdgeStyle;rounded=0;orthogonalLoop=1;jettySize=auto;html=1;" parent="1" source="_nmo6AtYuHJvuhX7b1Vl-8" target="_nmo6AtYuHJvuhX7b1Vl-12" edge="1">
          <mxGeometry relative="1" as="geometry" />
        </mxCell>
        <mxCell id="_nmo6AtYuHJvuhX7b1Vl-16" value="NÃO" style="edgeStyle=orthogonalEdgeStyle;rounded=0;orthogonalLoop=1;jettySize=auto;html=1;exitX=1;exitY=0.5;exitDx=0;exitDy=0;entryX=0.5;entryY=0;entryDx=0;entryDy=0;" parent="1" source="_nmo6AtYuHJvuhX7b1Vl-8" target="_nmo6AtYuHJvuhX7b1Vl-14" edge="1">
          <mxGeometry relative="1" as="geometry" />
        </mxCell>
        <mxCell id="_nmo6AtYuHJvuhX7b1Vl-8" value="ALTERAR NOME?" style="rhombus;whiteSpace=wrap;html=1;fillColor=#d5e8d4;strokeColor=#82b366;" parent="1" vertex="1">
          <mxGeometry x="1330" y="1700" width="80" height="80" as="geometry" />
        </mxCell>
        <mxCell id="_nmo6AtYuHJvuhX7b1Vl-15" style="edgeStyle=orthogonalEdgeStyle;rounded=0;orthogonalLoop=1;jettySize=auto;html=1;exitX=1;exitY=0.5;exitDx=0;exitDy=0;" parent="1" source="_nmo6AtYuHJvuhX7b1Vl-12" target="_nmo6AtYuHJvuhX7b1Vl-14" edge="1">
          <mxGeometry relative="1" as="geometry" />
        </mxCell>
        <mxCell id="_nmo6AtYuHJvuhX7b1Vl-12" value="MOSTRAR SUCESSO" style="rounded=1;whiteSpace=wrap;html=1;fillColor=#e1d5e7;strokeColor=#9673a6;" parent="1" vertex="1">
          <mxGeometry x="1310" y="1870" width="120" height="60" as="geometry" />
        </mxCell>
        <mxCell id="_nmo6AtYuHJvuhX7b1Vl-14" value="FIM" style="ellipse;whiteSpace=wrap;html=1;fillColor=#f8cecc;strokeColor=#b85450;" parent="1" vertex="1">
          <mxGeometry x="1570" y="1860" width="120" height="80" as="geometry" />
        </mxCell>
        <mxCell id="_nmo6AtYuHJvuhX7b1Vl-20" value="" style="edgeStyle=orthogonalEdgeStyle;rounded=0;orthogonalLoop=1;jettySize=auto;html=1;" parent="1" source="_nmo6AtYuHJvuhX7b1Vl-18" target="_nmo6AtYuHJvuhX7b1Vl-19" edge="1">
          <mxGeometry relative="1" as="geometry" />
        </mxCell>
        <mxCell id="_nmo6AtYuHJvuhX7b1Vl-18" value="INICIO" style="ellipse;whiteSpace=wrap;html=1;fillColor=#f8cecc;strokeColor=#b85450;" parent="1" vertex="1">
          <mxGeometry x="2050" y="1105" width="120" height="80" as="geometry" />
        </mxCell>
        <mxCell id="_nmo6AtYuHJvuhX7b1Vl-22" value="" style="edgeStyle=orthogonalEdgeStyle;rounded=0;orthogonalLoop=1;jettySize=auto;html=1;" parent="1" source="_nmo6AtYuHJvuhX7b1Vl-19" target="_nmo6AtYuHJvuhX7b1Vl-21" edge="1">
          <mxGeometry relative="1" as="geometry" />
        </mxCell>
        <mxCell id="_nmo6AtYuHJvuhX7b1Vl-19" value="ENTRAR NA CONTA" style="rounded=1;whiteSpace=wrap;html=1;fillColor=#dae8fc;strokeColor=#6c8ebf;" parent="1" vertex="1">
          <mxGeometry x="2050" y="1275" width="120" height="60" as="geometry" />
        </mxCell>
        <mxCell id="_nmo6AtYuHJvuhX7b1Vl-24" value="" style="edgeStyle=orthogonalEdgeStyle;rounded=0;orthogonalLoop=1;jettySize=auto;html=1;" parent="1" source="_nmo6AtYuHJvuhX7b1Vl-21" target="_nmo6AtYuHJvuhX7b1Vl-23" edge="1">
          <mxGeometry relative="1" as="geometry" />
        </mxCell>
        <mxCell id="_nmo6AtYuHJvuhX7b1Vl-21" value="EXCLUIR CONTA" style="rounded=1;whiteSpace=wrap;html=1;fillColor=#dae8fc;strokeColor=#6c8ebf;" parent="1" vertex="1">
          <mxGeometry x="2050" y="1415" width="120" height="60" as="geometry" />
        </mxCell>
        <mxCell id="_nmo6AtYuHJvuhX7b1Vl-26" value="SIM" style="edgeStyle=orthogonalEdgeStyle;rounded=0;orthogonalLoop=1;jettySize=auto;html=1;" parent="1" source="_nmo6AtYuHJvuhX7b1Vl-23" target="_nmo6AtYuHJvuhX7b1Vl-25" edge="1">
          <mxGeometry relative="1" as="geometry" />
        </mxCell>
        <mxCell id="_nmo6AtYuHJvuhX7b1Vl-29" value="NÃO" style="edgeStyle=orthogonalEdgeStyle;rounded=0;orthogonalLoop=1;jettySize=auto;html=1;exitX=1;exitY=0.5;exitDx=0;exitDy=0;entryX=0.5;entryY=0;entryDx=0;entryDy=0;" parent="1" source="_nmo6AtYuHJvuhX7b1Vl-23" target="_nmo6AtYuHJvuhX7b1Vl-27" edge="1">
          <mxGeometry relative="1" as="geometry" />
        </mxCell>
        <mxCell id="_nmo6AtYuHJvuhX7b1Vl-23" value="DESEJA EXCLUIR?" style="rhombus;whiteSpace=wrap;html=1;fillColor=#d5e8d4;strokeColor=#82b366;" parent="1" vertex="1">
          <mxGeometry x="2070" y="1555" width="80" height="80" as="geometry" />
        </mxCell>
        <mxCell id="_nmo6AtYuHJvuhX7b1Vl-28" style="edgeStyle=orthogonalEdgeStyle;rounded=0;orthogonalLoop=1;jettySize=auto;html=1;exitX=1;exitY=0.5;exitDx=0;exitDy=0;entryX=0;entryY=0.5;entryDx=0;entryDy=0;" parent="1" source="_nmo6AtYuHJvuhX7b1Vl-25" target="_nmo6AtYuHJvuhX7b1Vl-27" edge="1">
          <mxGeometry relative="1" as="geometry" />
        </mxCell>
        <mxCell id="_nmo6AtYuHJvuhX7b1Vl-25" value="MOSTRAR SUCESSO" style="rounded=1;whiteSpace=wrap;html=1;fillColor=#e1d5e7;strokeColor=#9673a6;" parent="1" vertex="1">
          <mxGeometry x="2050" y="1725" width="120" height="60" as="geometry" />
        </mxCell>
        <mxCell id="_nmo6AtYuHJvuhX7b1Vl-27" value="FIM" style="ellipse;whiteSpace=wrap;html=1;fillColor=#f8cecc;strokeColor=#b85450;" parent="1" vertex="1">
          <mxGeometry x="2300" y="1715" width="120" height="80" as="geometry" />
        </mxCell>
        <mxCell id="_nmo6AtYuHJvuhX7b1Vl-30" value="&lt;h1&gt;CADASTRO CLIENTE&lt;/h1&gt;" style="swimlane;whiteSpace=wrap;html=1;startSize=120;" parent="1" vertex="1">
          <mxGeometry x="70" y="950" width="420" height="1630" as="geometry" />
        </mxCell>
        <mxCell id="_nmo6AtYuHJvuhX7b1Vl-31" value="&lt;h1&gt;ANALIZE DE DADOS&lt;/h1&gt;" style="swimlane;whiteSpace=wrap;html=1;startSize=120;" parent="1" vertex="1">
          <mxGeometry x="660" y="960" width="420" height="1630" as="geometry" />
        </mxCell>
        <mxCell id="_nmo6AtYuHJvuhX7b1Vl-32" value="&lt;h1&gt;MODIFICAR PERFIL&lt;/h1&gt;" style="swimlane;whiteSpace=wrap;html=1;startSize=120;" parent="1" vertex="1">
          <mxGeometry x="1280" y="950" width="420" height="1630" as="geometry" />
        </mxCell>
        <mxCell id="_nmo6AtYuHJvuhX7b1Vl-33" value="&lt;h1&gt;EXCLUIR PERFIL&lt;/h1&gt;" style="swimlane;whiteSpace=wrap;html=1;startSize=120;" parent="1" vertex="1">
          <mxGeometry x="2030" y="940" width="420" height="1630" as="geometry" />
        </mxCell>
        <mxCell id="_nmo6AtYuHJvuhX7b1Vl-36" value="" style="edgeStyle=orthogonalEdgeStyle;rounded=0;orthogonalLoop=1;jettySize=auto;html=1;" parent="1" source="_nmo6AtYuHJvuhX7b1Vl-34" target="_nmo6AtYuHJvuhX7b1Vl-35" edge="1">
          <mxGeometry relative="1" as="geometry" />
        </mxCell>
        <mxCell id="_nmo6AtYuHJvuhX7b1Vl-34" value="INICIO" style="ellipse;whiteSpace=wrap;html=1;fillColor=#f8cecc;strokeColor=#b85450;" parent="1" vertex="1">
          <mxGeometry x="220" y="2750" width="120" height="80" as="geometry" />
        </mxCell>
        <mxCell id="_nmo6AtYuHJvuhX7b1Vl-38" value="" style="edgeStyle=orthogonalEdgeStyle;rounded=0;orthogonalLoop=1;jettySize=auto;html=1;" parent="1" source="_nmo6AtYuHJvuhX7b1Vl-35" target="_nmo6AtYuHJvuhX7b1Vl-37" edge="1">
          <mxGeometry relative="1" as="geometry" />
        </mxCell>
        <mxCell id="_nmo6AtYuHJvuhX7b1Vl-35" value="CADASTAR FORNECEDOR" style="rounded=1;whiteSpace=wrap;html=1;fillColor=#dae8fc;strokeColor=#6c8ebf;" parent="1" vertex="1">
          <mxGeometry x="220" y="2920" width="120" height="60" as="geometry" />
        </mxCell>
        <mxCell id="_nmo6AtYuHJvuhX7b1Vl-40" value="" style="edgeStyle=orthogonalEdgeStyle;rounded=0;orthogonalLoop=1;jettySize=auto;html=1;" parent="1" source="_nmo6AtYuHJvuhX7b1Vl-37" target="_nmo6AtYuHJvuhX7b1Vl-39" edge="1">
          <mxGeometry relative="1" as="geometry" />
        </mxCell>
        <mxCell id="_nmo6AtYuHJvuhX7b1Vl-37" value="INSERIR E-MAIL" style="rounded=1;whiteSpace=wrap;html=1;fillColor=#dae8fc;strokeColor=#6c8ebf;" parent="1" vertex="1">
          <mxGeometry x="220" y="3060" width="120" height="60" as="geometry" />
        </mxCell>
        <mxCell id="_nmo6AtYuHJvuhX7b1Vl-43" value="NÃO" style="edgeStyle=orthogonalEdgeStyle;rounded=0;orthogonalLoop=1;jettySize=auto;html=1;exitX=1;exitY=0.5;exitDx=0;exitDy=0;entryX=0.5;entryY=1;entryDx=0;entryDy=0;" parent="1" source="_nmo6AtYuHJvuhX7b1Vl-39" target="_nmo6AtYuHJvuhX7b1Vl-41" edge="1">
          <mxGeometry relative="1" as="geometry" />
        </mxCell>
        <mxCell id="_nmo6AtYuHJvuhX7b1Vl-46" value="SIM" style="edgeStyle=orthogonalEdgeStyle;rounded=0;orthogonalLoop=1;jettySize=auto;html=1;" parent="1" source="_nmo6AtYuHJvuhX7b1Vl-39" target="_nmo6AtYuHJvuhX7b1Vl-45" edge="1">
          <mxGeometry relative="1" as="geometry" />
        </mxCell>
        <mxCell id="_nmo6AtYuHJvuhX7b1Vl-39" value="E-MAIL VALIDO?" style="rhombus;whiteSpace=wrap;html=1;fillColor=#d5e8d4;strokeColor=#82b366;" parent="1" vertex="1">
          <mxGeometry x="240" y="3180" width="80" height="80" as="geometry" />
        </mxCell>
        <mxCell id="_nmo6AtYuHJvuhX7b1Vl-44" style="edgeStyle=orthogonalEdgeStyle;rounded=0;orthogonalLoop=1;jettySize=auto;html=1;exitX=0.5;exitY=0;exitDx=0;exitDy=0;entryX=1;entryY=0.5;entryDx=0;entryDy=0;" parent="1" source="_nmo6AtYuHJvuhX7b1Vl-41" target="_nmo6AtYuHJvuhX7b1Vl-37" edge="1">
          <mxGeometry relative="1" as="geometry" />
        </mxCell>
        <mxCell id="_nmo6AtYuHJvuhX7b1Vl-41" value="MOSTRAR ERRO" style="rounded=1;whiteSpace=wrap;html=1;fillColor=#fff2cc;strokeColor=#d6b656;" parent="1" vertex="1">
          <mxGeometry x="410" y="3120" width="120" height="60" as="geometry" />
        </mxCell>
        <mxCell id="_nmo6AtYuHJvuhX7b1Vl-48" value="" style="edgeStyle=orthogonalEdgeStyle;rounded=0;orthogonalLoop=1;jettySize=auto;html=1;" parent="1" source="_nmo6AtYuHJvuhX7b1Vl-45" target="_nmo6AtYuHJvuhX7b1Vl-47" edge="1">
          <mxGeometry relative="1" as="geometry" />
        </mxCell>
        <mxCell id="_nmo6AtYuHJvuhX7b1Vl-45" value="MOSTRAR SUCESSO" style="rounded=1;whiteSpace=wrap;html=1;fillColor=#e1d5e7;strokeColor=#9673a6;" parent="1" vertex="1">
          <mxGeometry x="220" y="3350" width="120" height="60" as="geometry" />
        </mxCell>
        <mxCell id="_nmo6AtYuHJvuhX7b1Vl-50" value="" style="edgeStyle=orthogonalEdgeStyle;rounded=0;orthogonalLoop=1;jettySize=auto;html=1;" parent="1" source="_nmo6AtYuHJvuhX7b1Vl-47" target="_nmo6AtYuHJvuhX7b1Vl-49" edge="1">
          <mxGeometry relative="1" as="geometry" />
        </mxCell>
        <mxCell id="_nmo6AtYuHJvuhX7b1Vl-47" value="INSERIR SENHA" style="rounded=1;whiteSpace=wrap;html=1;fillColor=#dae8fc;strokeColor=#6c8ebf;" parent="1" vertex="1">
          <mxGeometry x="220" y="3490" width="120" height="60" as="geometry" />
        </mxCell>
        <mxCell id="_nmo6AtYuHJvuhX7b1Vl-52" value="NÃO" style="edgeStyle=orthogonalEdgeStyle;rounded=0;orthogonalLoop=1;jettySize=auto;html=1;exitX=1;exitY=0.5;exitDx=0;exitDy=0;entryX=0.5;entryY=1;entryDx=0;entryDy=0;" parent="1" source="_nmo6AtYuHJvuhX7b1Vl-49" target="_nmo6AtYuHJvuhX7b1Vl-51" edge="1">
          <mxGeometry relative="1" as="geometry" />
        </mxCell>
        <mxCell id="_nmo6AtYuHJvuhX7b1Vl-55" value="SIM" style="edgeStyle=orthogonalEdgeStyle;rounded=0;orthogonalLoop=1;jettySize=auto;html=1;" parent="1" source="_nmo6AtYuHJvuhX7b1Vl-49" target="_nmo6AtYuHJvuhX7b1Vl-54" edge="1">
          <mxGeometry relative="1" as="geometry" />
        </mxCell>
        <mxCell id="_nmo6AtYuHJvuhX7b1Vl-49" value="SENHA VALIDA?" style="rhombus;whiteSpace=wrap;html=1;fillColor=#d5e8d4;strokeColor=#82b366;" parent="1" vertex="1">
          <mxGeometry x="240" y="3620" width="80" height="80" as="geometry" />
        </mxCell>
        <mxCell id="_nmo6AtYuHJvuhX7b1Vl-53" style="edgeStyle=orthogonalEdgeStyle;rounded=0;orthogonalLoop=1;jettySize=auto;html=1;exitX=0.5;exitY=0;exitDx=0;exitDy=0;entryX=1;entryY=0.5;entryDx=0;entryDy=0;" parent="1" source="_nmo6AtYuHJvuhX7b1Vl-51" target="_nmo6AtYuHJvuhX7b1Vl-47" edge="1">
          <mxGeometry relative="1" as="geometry" />
        </mxCell>
        <mxCell id="_nmo6AtYuHJvuhX7b1Vl-51" value="MOSTRAR ERRO" style="rounded=1;whiteSpace=wrap;html=1;fillColor=#fff2cc;strokeColor=#d6b656;" parent="1" vertex="1">
          <mxGeometry x="410" y="3560" width="120" height="60" as="geometry" />
        </mxCell>
        <mxCell id="_nmo6AtYuHJvuhX7b1Vl-57" value="" style="edgeStyle=orthogonalEdgeStyle;rounded=0;orthogonalLoop=1;jettySize=auto;html=1;" parent="1" source="_nmo6AtYuHJvuhX7b1Vl-54" target="_nmo6AtYuHJvuhX7b1Vl-56" edge="1">
          <mxGeometry relative="1" as="geometry" />
        </mxCell>
        <mxCell id="_nmo6AtYuHJvuhX7b1Vl-54" value="MOSTRAR SUCESSO" style="rounded=1;whiteSpace=wrap;html=1;fillColor=#e1d5e7;strokeColor=#9673a6;" parent="1" vertex="1">
          <mxGeometry x="220" y="3770" width="120" height="60" as="geometry" />
        </mxCell>
        <mxCell id="_nmo6AtYuHJvuhX7b1Vl-56" value="FIM" style="ellipse;whiteSpace=wrap;html=1;fillColor=#f8cecc;strokeColor=#b85450;" parent="1" vertex="1">
          <mxGeometry x="220" y="3900" width="120" height="80" as="geometry" />
        </mxCell>
        <mxCell id="_nmo6AtYuHJvuhX7b1Vl-73" value="" style="edgeStyle=orthogonalEdgeStyle;rounded=0;orthogonalLoop=1;jettySize=auto;html=1;" parent="1" source="_nmo6AtYuHJvuhX7b1Vl-74" target="_nmo6AtYuHJvuhX7b1Vl-76" edge="1">
          <mxGeometry relative="1" as="geometry" />
        </mxCell>
        <mxCell id="_nmo6AtYuHJvuhX7b1Vl-74" value="INICIO" style="ellipse;whiteSpace=wrap;html=1;fillColor=#f8cecc;strokeColor=#b85450;" parent="1" vertex="1">
          <mxGeometry x="860" y="2750" width="120" height="80" as="geometry" />
        </mxCell>
        <mxCell id="_nmo6AtYuHJvuhX7b1Vl-75" value="" style="edgeStyle=orthogonalEdgeStyle;rounded=0;orthogonalLoop=1;jettySize=auto;html=1;" parent="1" source="_nmo6AtYuHJvuhX7b1Vl-76" target="_nmo6AtYuHJvuhX7b1Vl-79" edge="1">
          <mxGeometry relative="1" as="geometry" />
        </mxCell>
        <mxCell id="_nmo6AtYuHJvuhX7b1Vl-76" value="RESGATAR DADOS DO FORNECEDOR" style="rounded=1;whiteSpace=wrap;html=1;fillColor=#dae8fc;strokeColor=#6c8ebf;" parent="1" vertex="1">
          <mxGeometry x="860" y="2920" width="120" height="60" as="geometry" />
        </mxCell>
        <mxCell id="_nmo6AtYuHJvuhX7b1Vl-77" value="NÃO" style="edgeStyle=orthogonalEdgeStyle;rounded=0;orthogonalLoop=1;jettySize=auto;html=1;exitX=1;exitY=0.5;exitDx=0;exitDy=0;entryX=0.5;entryY=1;entryDx=0;entryDy=0;" parent="1" source="_nmo6AtYuHJvuhX7b1Vl-79" target="_nmo6AtYuHJvuhX7b1Vl-81" edge="1">
          <mxGeometry relative="1" as="geometry" />
        </mxCell>
        <mxCell id="_nmo6AtYuHJvuhX7b1Vl-78" value="SIM" style="edgeStyle=orthogonalEdgeStyle;rounded=0;orthogonalLoop=1;jettySize=auto;html=1;" parent="1" source="_nmo6AtYuHJvuhX7b1Vl-79" target="_nmo6AtYuHJvuhX7b1Vl-83" edge="1">
          <mxGeometry relative="1" as="geometry" />
        </mxCell>
        <mxCell id="_nmo6AtYuHJvuhX7b1Vl-79" value="DADOS COMPLETOS?" style="rhombus;whiteSpace=wrap;html=1;fillColor=#d5e8d4;strokeColor=#82b366;" parent="1" vertex="1">
          <mxGeometry x="865" y="3070" width="110" height="110" as="geometry" />
        </mxCell>
        <mxCell id="_nmo6AtYuHJvuhX7b1Vl-80" style="edgeStyle=orthogonalEdgeStyle;rounded=0;orthogonalLoop=1;jettySize=auto;html=1;exitX=0.5;exitY=0;exitDx=0;exitDy=0;entryX=1;entryY=0.5;entryDx=0;entryDy=0;" parent="1" source="_nmo6AtYuHJvuhX7b1Vl-81" target="_nmo6AtYuHJvuhX7b1Vl-76" edge="1">
          <mxGeometry relative="1" as="geometry" />
        </mxCell>
        <mxCell id="_nmo6AtYuHJvuhX7b1Vl-81" value="MOSTRAR ERRO" style="rounded=1;whiteSpace=wrap;html=1;fillColor=#fff2cc;strokeColor=#d6b656;" parent="1" vertex="1">
          <mxGeometry x="1050" y="3010" width="120" height="60" as="geometry" />
        </mxCell>
        <mxCell id="_nmo6AtYuHJvuhX7b1Vl-82" value="" style="edgeStyle=orthogonalEdgeStyle;rounded=0;orthogonalLoop=1;jettySize=auto;html=1;" parent="1" source="_nmo6AtYuHJvuhX7b1Vl-83" target="_nmo6AtYuHJvuhX7b1Vl-85" edge="1">
          <mxGeometry relative="1" as="geometry" />
        </mxCell>
        <mxCell id="_nmo6AtYuHJvuhX7b1Vl-83" value="MOSTRAR SUCESSO" style="rounded=1;whiteSpace=wrap;html=1;fillColor=#e1d5e7;strokeColor=#9673a6;" parent="1" vertex="1">
          <mxGeometry x="860" y="3270" width="120" height="60" as="geometry" />
        </mxCell>
        <mxCell id="_nmo6AtYuHJvuhX7b1Vl-84" value="" style="edgeStyle=orthogonalEdgeStyle;rounded=0;orthogonalLoop=1;jettySize=auto;html=1;" parent="1" source="_nmo6AtYuHJvuhX7b1Vl-85" target="_nmo6AtYuHJvuhX7b1Vl-86" edge="1">
          <mxGeometry relative="1" as="geometry" />
        </mxCell>
        <mxCell id="_nmo6AtYuHJvuhX7b1Vl-85" value="REVELAR AO FORNECEDOR" style="rounded=1;whiteSpace=wrap;html=1;fillColor=#dae8fc;strokeColor=#6c8ebf;" parent="1" vertex="1">
          <mxGeometry x="860" y="3410" width="120" height="60" as="geometry" />
        </mxCell>
        <mxCell id="_nmo6AtYuHJvuhX7b1Vl-86" value="FIM" style="ellipse;whiteSpace=wrap;html=1;fillColor=#f8cecc;strokeColor=#b85450;" parent="1" vertex="1">
          <mxGeometry x="860" y="3540" width="120" height="80" as="geometry" />
        </mxCell>
        <mxCell id="_nmo6AtYuHJvuhX7b1Vl-89" value="" style="edgeStyle=orthogonalEdgeStyle;rounded=0;orthogonalLoop=1;jettySize=auto;html=1;" parent="1" source="_nmo6AtYuHJvuhX7b1Vl-87" target="_nmo6AtYuHJvuhX7b1Vl-88" edge="1">
          <mxGeometry relative="1" as="geometry" />
        </mxCell>
        <mxCell id="_nmo6AtYuHJvuhX7b1Vl-87" value="INICIO" style="ellipse;whiteSpace=wrap;html=1;fillColor=#f8cecc;strokeColor=#b85450;" parent="1" vertex="1">
          <mxGeometry x="1410" y="2740" width="120" height="80" as="geometry" />
        </mxCell>
        <mxCell id="_nmo6AtYuHJvuhX7b1Vl-93" value="" style="edgeStyle=orthogonalEdgeStyle;rounded=0;orthogonalLoop=1;jettySize=auto;html=1;" parent="1" source="_nmo6AtYuHJvuhX7b1Vl-88" target="_nmo6AtYuHJvuhX7b1Vl-92" edge="1">
          <mxGeometry relative="1" as="geometry" />
        </mxCell>
        <mxCell id="_nmo6AtYuHJvuhX7b1Vl-88" value="COLOCAR MATERIAL" style="rounded=1;whiteSpace=wrap;html=1;fillColor=#dae8fc;strokeColor=#6c8ebf;" parent="1" vertex="1">
          <mxGeometry x="1410" y="2910" width="120" height="60" as="geometry" />
        </mxCell>
        <mxCell id="_nmo6AtYuHJvuhX7b1Vl-95" value="NÃO" style="edgeStyle=orthogonalEdgeStyle;rounded=0;orthogonalLoop=1;jettySize=auto;html=1;exitX=1;exitY=0.5;exitDx=0;exitDy=0;" parent="1" source="_nmo6AtYuHJvuhX7b1Vl-92" edge="1">
          <mxGeometry relative="1" as="geometry">
            <mxPoint x="1510" y="3090" as="sourcePoint" />
            <mxPoint x="1665" y="3030" as="targetPoint" />
            <Array as="points">
              <mxPoint x="1510" y="3090" />
              <mxPoint x="1665" y="3090" />
            </Array>
          </mxGeometry>
        </mxCell>
        <mxCell id="_nmo6AtYuHJvuhX7b1Vl-98" value="SIM" style="edgeStyle=orthogonalEdgeStyle;rounded=0;orthogonalLoop=1;jettySize=auto;html=1;" parent="1" source="_nmo6AtYuHJvuhX7b1Vl-92" target="_nmo6AtYuHJvuhX7b1Vl-97" edge="1">
          <mxGeometry relative="1" as="geometry" />
        </mxCell>
        <mxCell id="_nmo6AtYuHJvuhX7b1Vl-92" value="MATERIAL CORRETO?" style="rhombus;whiteSpace=wrap;html=1;fillColor=#d5e8d4;strokeColor=#82b366;" parent="1" vertex="1">
          <mxGeometry x="1430" y="3055" width="80" height="80" as="geometry" />
        </mxCell>
        <mxCell id="_nmo6AtYuHJvuhX7b1Vl-96" style="edgeStyle=orthogonalEdgeStyle;rounded=0;orthogonalLoop=1;jettySize=auto;html=1;exitX=0.5;exitY=0;exitDx=0;exitDy=0;entryX=1;entryY=0.5;entryDx=0;entryDy=0;" parent="1" source="_nmo6AtYuHJvuhX7b1Vl-94" target="_nmo6AtYuHJvuhX7b1Vl-88" edge="1">
          <mxGeometry relative="1" as="geometry" />
        </mxCell>
        <mxCell id="_nmo6AtYuHJvuhX7b1Vl-94" value="INSERIR NOVAMENTE" style="rounded=1;whiteSpace=wrap;html=1;fillColor=#dae8fc;strokeColor=#6c8ebf;" parent="1" vertex="1">
          <mxGeometry x="1600" y="2970" width="120" height="60" as="geometry" />
        </mxCell>
        <mxCell id="_nmo6AtYuHJvuhX7b1Vl-100" value="" style="edgeStyle=orthogonalEdgeStyle;rounded=0;orthogonalLoop=1;jettySize=auto;html=1;" parent="1" source="_nmo6AtYuHJvuhX7b1Vl-97" target="_nmo6AtYuHJvuhX7b1Vl-99" edge="1">
          <mxGeometry relative="1" as="geometry" />
        </mxCell>
        <mxCell id="_nmo6AtYuHJvuhX7b1Vl-97" value="ENVIAR" style="rounded=1;whiteSpace=wrap;html=1;fillColor=#dae8fc;strokeColor=#6c8ebf;" parent="1" vertex="1">
          <mxGeometry x="1410" y="3225" width="120" height="60" as="geometry" />
        </mxCell>
        <mxCell id="_nmo6AtYuHJvuhX7b1Vl-99" value="FIM" style="ellipse;whiteSpace=wrap;html=1;fillColor=#f8cecc;strokeColor=#b85450;" parent="1" vertex="1">
          <mxGeometry x="1410" y="3380" width="120" height="80" as="geometry" />
        </mxCell>
        <mxCell id="_nmo6AtYuHJvuhX7b1Vl-101" value="" style="edgeStyle=orthogonalEdgeStyle;rounded=0;orthogonalLoop=1;jettySize=auto;html=1;" parent="1" source="_nmo6AtYuHJvuhX7b1Vl-102" target="_nmo6AtYuHJvuhX7b1Vl-104" edge="1">
          <mxGeometry relative="1" as="geometry" />
        </mxCell>
        <mxCell id="_nmo6AtYuHJvuhX7b1Vl-102" value="INICIO" style="ellipse;whiteSpace=wrap;html=1;fillColor=#f8cecc;strokeColor=#b85450;" parent="1" vertex="1">
          <mxGeometry x="2100" y="2750" width="120" height="80" as="geometry" />
        </mxCell>
        <mxCell id="_nmo6AtYuHJvuhX7b1Vl-103" value="" style="edgeStyle=orthogonalEdgeStyle;rounded=0;orthogonalLoop=1;jettySize=auto;html=1;" parent="1" source="_nmo6AtYuHJvuhX7b1Vl-104" target="_nmo6AtYuHJvuhX7b1Vl-106" edge="1">
          <mxGeometry relative="1" as="geometry" />
        </mxCell>
        <mxCell id="_nmo6AtYuHJvuhX7b1Vl-104" value="ENTRAR NA CONTA" style="rounded=1;whiteSpace=wrap;html=1;fillColor=#dae8fc;strokeColor=#6c8ebf;" parent="1" vertex="1">
          <mxGeometry x="2100" y="2920" width="120" height="60" as="geometry" />
        </mxCell>
        <mxCell id="_nmo6AtYuHJvuhX7b1Vl-105" value="" style="edgeStyle=orthogonalEdgeStyle;rounded=0;orthogonalLoop=1;jettySize=auto;html=1;" parent="1" source="_nmo6AtYuHJvuhX7b1Vl-106" target="_nmo6AtYuHJvuhX7b1Vl-109" edge="1">
          <mxGeometry relative="1" as="geometry" />
        </mxCell>
        <mxCell id="_nmo6AtYuHJvuhX7b1Vl-106" value="EXCLUIR CONTA" style="rounded=1;whiteSpace=wrap;html=1;fillColor=#dae8fc;strokeColor=#6c8ebf;" parent="1" vertex="1">
          <mxGeometry x="2100" y="3060" width="120" height="60" as="geometry" />
        </mxCell>
        <mxCell id="_nmo6AtYuHJvuhX7b1Vl-107" value="SIM" style="edgeStyle=orthogonalEdgeStyle;rounded=0;orthogonalLoop=1;jettySize=auto;html=1;" parent="1" source="_nmo6AtYuHJvuhX7b1Vl-109" target="_nmo6AtYuHJvuhX7b1Vl-111" edge="1">
          <mxGeometry relative="1" as="geometry" />
        </mxCell>
        <mxCell id="_nmo6AtYuHJvuhX7b1Vl-108" value="NÃO" style="edgeStyle=orthogonalEdgeStyle;rounded=0;orthogonalLoop=1;jettySize=auto;html=1;exitX=1;exitY=0.5;exitDx=0;exitDy=0;entryX=0.5;entryY=0;entryDx=0;entryDy=0;" parent="1" source="_nmo6AtYuHJvuhX7b1Vl-109" target="_nmo6AtYuHJvuhX7b1Vl-112" edge="1">
          <mxGeometry relative="1" as="geometry" />
        </mxCell>
        <mxCell id="_nmo6AtYuHJvuhX7b1Vl-109" value="DESEJA EXCLUIR?" style="rhombus;whiteSpace=wrap;html=1;fillColor=#d5e8d4;strokeColor=#82b366;" parent="1" vertex="1">
          <mxGeometry x="2120" y="3200" width="80" height="80" as="geometry" />
        </mxCell>
        <mxCell id="_nmo6AtYuHJvuhX7b1Vl-110" style="edgeStyle=orthogonalEdgeStyle;rounded=0;orthogonalLoop=1;jettySize=auto;html=1;exitX=1;exitY=0.5;exitDx=0;exitDy=0;entryX=0;entryY=0.5;entryDx=0;entryDy=0;" parent="1" source="_nmo6AtYuHJvuhX7b1Vl-111" target="_nmo6AtYuHJvuhX7b1Vl-112" edge="1">
          <mxGeometry relative="1" as="geometry" />
        </mxCell>
        <mxCell id="_nmo6AtYuHJvuhX7b1Vl-111" value="MOSTRAR SUCESSO" style="rounded=1;whiteSpace=wrap;html=1;fillColor=#e1d5e7;strokeColor=#9673a6;" parent="1" vertex="1">
          <mxGeometry x="2100" y="3370" width="120" height="60" as="geometry" />
        </mxCell>
        <mxCell id="_nmo6AtYuHJvuhX7b1Vl-112" value="FIM" style="ellipse;whiteSpace=wrap;html=1;fillColor=#f8cecc;strokeColor=#b85450;" parent="1" vertex="1">
          <mxGeometry x="2350" y="3360" width="120" height="80" as="geometry" />
        </mxCell>
        <mxCell id="_nmo6AtYuHJvuhX7b1Vl-116" value="" style="edgeStyle=orthogonalEdgeStyle;rounded=0;orthogonalLoop=1;jettySize=auto;html=1;" parent="1" source="_nmo6AtYuHJvuhX7b1Vl-114" target="_nmo6AtYuHJvuhX7b1Vl-115" edge="1">
          <mxGeometry relative="1" as="geometry" />
        </mxCell>
        <mxCell id="_nmo6AtYuHJvuhX7b1Vl-114" value="INICIO" style="ellipse;whiteSpace=wrap;html=1;fillColor=#f8cecc;strokeColor=#b85450;" parent="1" vertex="1">
          <mxGeometry x="220" y="4260" width="120" height="80" as="geometry" />
        </mxCell>
        <mxCell id="_nmo6AtYuHJvuhX7b1Vl-118" value="" style="edgeStyle=orthogonalEdgeStyle;rounded=0;orthogonalLoop=1;jettySize=auto;html=1;" parent="1" source="_nmo6AtYuHJvuhX7b1Vl-115" target="_nmo6AtYuHJvuhX7b1Vl-117" edge="1">
          <mxGeometry relative="1" as="geometry" />
        </mxCell>
        <mxCell id="_nmo6AtYuHJvuhX7b1Vl-115" value="CHEGADA DO MATERIAL" style="rounded=1;whiteSpace=wrap;html=1;fillColor=#dae8fc;strokeColor=#6c8ebf;" parent="1" vertex="1">
          <mxGeometry x="220" y="4430" width="120" height="60" as="geometry" />
        </mxCell>
        <mxCell id="_nmo6AtYuHJvuhX7b1Vl-120" value="" style="edgeStyle=orthogonalEdgeStyle;rounded=0;orthogonalLoop=1;jettySize=auto;html=1;" parent="1" source="_nmo6AtYuHJvuhX7b1Vl-117" target="_nmo6AtYuHJvuhX7b1Vl-119" edge="1">
          <mxGeometry relative="1" as="geometry" />
        </mxCell>
        <mxCell id="_nmo6AtYuHJvuhX7b1Vl-117" value="ENVIAR A FABRICAÇÃO" style="rounded=1;whiteSpace=wrap;html=1;fillColor=#dae8fc;strokeColor=#6c8ebf;" parent="1" vertex="1">
          <mxGeometry x="220" y="4570" width="120" height="60" as="geometry" />
        </mxCell>
        <mxCell id="_nmo6AtYuHJvuhX7b1Vl-121" value="NÃO" style="edgeStyle=orthogonalEdgeStyle;rounded=0;orthogonalLoop=1;jettySize=auto;html=1;exitX=1;exitY=0.5;exitDx=0;exitDy=0;entryX=1;entryY=0.5;entryDx=0;entryDy=0;" parent="1" source="_nmo6AtYuHJvuhX7b1Vl-119" target="_nmo6AtYuHJvuhX7b1Vl-117" edge="1">
          <mxGeometry relative="1" as="geometry">
            <Array as="points">
              <mxPoint x="410" y="4750" />
              <mxPoint x="410" y="4600" />
            </Array>
          </mxGeometry>
        </mxCell>
        <mxCell id="_nmo6AtYuHJvuhX7b1Vl-123" value="" style="edgeStyle=orthogonalEdgeStyle;rounded=0;orthogonalLoop=1;jettySize=auto;html=1;" parent="1" source="_nmo6AtYuHJvuhX7b1Vl-119" target="_nmo6AtYuHJvuhX7b1Vl-122" edge="1">
          <mxGeometry relative="1" as="geometry" />
        </mxCell>
        <mxCell id="_nmo6AtYuHJvuhX7b1Vl-119" value="MATERIAL CORRETO?" style="rhombus;whiteSpace=wrap;html=1;fillColor=#d5e8d4;strokeColor=#82b366;" parent="1" vertex="1">
          <mxGeometry x="240" y="4710" width="80" height="80" as="geometry" />
        </mxCell>
        <mxCell id="_nmo6AtYuHJvuhX7b1Vl-125" value="" style="edgeStyle=orthogonalEdgeStyle;rounded=0;orthogonalLoop=1;jettySize=auto;html=1;" parent="1" source="_nmo6AtYuHJvuhX7b1Vl-122" target="_nmo6AtYuHJvuhX7b1Vl-124" edge="1">
          <mxGeometry relative="1" as="geometry" />
        </mxCell>
        <mxCell id="_nmo6AtYuHJvuhX7b1Vl-122" value="FINALIZAR CONFECÇÃO" style="rounded=1;whiteSpace=wrap;html=1;fillColor=#dae8fc;strokeColor=#6c8ebf;" parent="1" vertex="1">
          <mxGeometry x="220" y="4880" width="120" height="60" as="geometry" />
        </mxCell>
        <mxCell id="_nmo6AtYuHJvuhX7b1Vl-124" value="FIM" style="ellipse;whiteSpace=wrap;html=1;fillColor=#f8cecc;strokeColor=#b85450;" parent="1" vertex="1">
          <mxGeometry x="220" y="5010" width="120" height="80" as="geometry" />
        </mxCell>
        <mxCell id="_nmo6AtYuHJvuhX7b1Vl-128" value="" style="edgeStyle=orthogonalEdgeStyle;rounded=0;orthogonalLoop=1;jettySize=auto;html=1;" parent="1" source="_nmo6AtYuHJvuhX7b1Vl-126" edge="1">
          <mxGeometry relative="1" as="geometry">
            <mxPoint x="780" y="4430" as="targetPoint" />
          </mxGeometry>
        </mxCell>
        <mxCell id="_nmo6AtYuHJvuhX7b1Vl-126" value="INICIO" style="ellipse;whiteSpace=wrap;html=1;fillColor=#f8cecc;strokeColor=#b85450;" parent="1" vertex="1">
          <mxGeometry x="720" y="4260" width="120" height="80" as="geometry" />
        </mxCell>
        <mxCell id="_nmo6AtYuHJvuhX7b1Vl-130" value="" style="edgeStyle=orthogonalEdgeStyle;rounded=0;orthogonalLoop=1;jettySize=auto;html=1;" parent="1" edge="1">
          <mxGeometry relative="1" as="geometry">
            <mxPoint x="780" y="4490" as="sourcePoint" />
            <mxPoint x="780.0666666666666" y="4580" as="targetPoint" />
          </mxGeometry>
        </mxCell>
        <mxCell id="_nmo6AtYuHJvuhX7b1Vl-131" value="COLETAR DOCUMENTOS PARA ENVIO" style="rounded=1;whiteSpace=wrap;html=1;fillColor=#dae8fc;strokeColor=#6c8ebf;" parent="1" vertex="1">
          <mxGeometry x="720" y="4430" width="120" height="60" as="geometry" />
        </mxCell>
        <mxCell id="_nmo6AtYuHJvuhX7b1Vl-134" value="NÃO" style="edgeStyle=orthogonalEdgeStyle;rounded=0;orthogonalLoop=1;jettySize=auto;html=1;exitX=1;exitY=0.5;exitDx=0;exitDy=0;entryX=0.5;entryY=1;entryDx=0;entryDy=0;" parent="1" source="_nmo6AtYuHJvuhX7b1Vl-132" target="_nmo6AtYuHJvuhX7b1Vl-133" edge="1">
          <mxGeometry relative="1" as="geometry" />
        </mxCell>
        <mxCell id="_nmo6AtYuHJvuhX7b1Vl-137" value="SIM" style="edgeStyle=orthogonalEdgeStyle;rounded=0;orthogonalLoop=1;jettySize=auto;html=1;" parent="1" source="_nmo6AtYuHJvuhX7b1Vl-132" edge="1">
          <mxGeometry relative="1" as="geometry">
            <mxPoint x="780" y="4760" as="targetPoint" />
          </mxGeometry>
        </mxCell>
        <mxCell id="_nmo6AtYuHJvuhX7b1Vl-132" value="DOCUMENTOS CORRETOS?" style="rhombus;whiteSpace=wrap;html=1;fillColor=#d5e8d4;strokeColor=#82b366;" parent="1" vertex="1">
          <mxGeometry x="730" y="4580" width="100" height="100" as="geometry" />
        </mxCell>
        <mxCell id="_nmo6AtYuHJvuhX7b1Vl-135" style="edgeStyle=orthogonalEdgeStyle;rounded=0;orthogonalLoop=1;jettySize=auto;html=1;exitX=0.5;exitY=0;exitDx=0;exitDy=0;entryX=1;entryY=0.5;entryDx=0;entryDy=0;" parent="1" source="_nmo6AtYuHJvuhX7b1Vl-133" target="_nmo6AtYuHJvuhX7b1Vl-131" edge="1">
          <mxGeometry relative="1" as="geometry" />
        </mxCell>
        <mxCell id="_nmo6AtYuHJvuhX7b1Vl-133" value="MOSTRAR ERRO" style="rounded=1;whiteSpace=wrap;html=1;fillColor=#e1d5e7;strokeColor=#9673a6;" parent="1" vertex="1">
          <mxGeometry x="890" y="4510" width="120" height="60" as="geometry" />
        </mxCell>
        <mxCell id="_nmo6AtYuHJvuhX7b1Vl-138" value="FIM" style="ellipse;whiteSpace=wrap;html=1;fillColor=#fff2cc;strokeColor=#d6b656;" parent="1" vertex="1">
          <mxGeometry x="720" y="4760" width="120" height="80" as="geometry" />
        </mxCell>
        <mxCell id="7-09mB-4O6fpkuDXil-m-1" value="Text" style="text;html=1;align=center;verticalAlign=middle;resizable=0;points=[];autosize=1;strokeColor=none;fillColor=none;" parent="1" vertex="1">
          <mxGeometry x="3745" y="848" width="50" height="30" as="geometry" />
        </mxCell>
        <mxCell id="QE2N11AFLP7gXFbt0uoY-1" value="&lt;font style=&quot;font-size: 34px;&quot;&gt;ESTOQUE&lt;/font&gt;" style="swimlane;whiteSpace=wrap;html=1;startSize=60;" vertex="1" parent="1">
          <mxGeometry x="2410" y="5890" width="910" height="1260" as="geometry" />
        </mxCell>
        <mxCell id="_nmo6AtYuHJvuhX7b1Vl-301" value="" style="group" parent="QE2N11AFLP7gXFbt0uoY-1" vertex="1" connectable="0">
          <mxGeometry x="55" y="80" width="800" height="1160" as="geometry" />
        </mxCell>
        <mxCell id="_nmo6AtYuHJvuhX7b1Vl-273" value="" style="edgeStyle=orthogonalEdgeStyle;rounded=0;orthogonalLoop=1;jettySize=auto;html=1;" parent="_nmo6AtYuHJvuhX7b1Vl-301" source="_nmo6AtYuHJvuhX7b1Vl-274" edge="1">
          <mxGeometry relative="1" as="geometry">
            <mxPoint x="270" y="170" as="targetPoint" />
          </mxGeometry>
        </mxCell>
        <mxCell id="_nmo6AtYuHJvuhX7b1Vl-274" value="INÍCIO" style="ellipse;whiteSpace=wrap;html=1;fillColor=#f8cecc;strokeColor=#b85450;" parent="_nmo6AtYuHJvuhX7b1Vl-301" vertex="1">
          <mxGeometry x="210" width="120" height="80" as="geometry" />
        </mxCell>
        <mxCell id="_nmo6AtYuHJvuhX7b1Vl-275" value="não" style="edgeStyle=orthogonalEdgeStyle;rounded=0;orthogonalLoop=1;jettySize=auto;html=1;" parent="_nmo6AtYuHJvuhX7b1Vl-301" source="_nmo6AtYuHJvuhX7b1Vl-277" target="_nmo6AtYuHJvuhX7b1Vl-279" edge="1">
          <mxGeometry relative="1" as="geometry" />
        </mxCell>
        <mxCell id="_nmo6AtYuHJvuhX7b1Vl-276" value="sim" style="edgeStyle=orthogonalEdgeStyle;rounded=0;orthogonalLoop=1;jettySize=auto;html=1;" parent="_nmo6AtYuHJvuhX7b1Vl-301" source="_nmo6AtYuHJvuhX7b1Vl-277" target="_nmo6AtYuHJvuhX7b1Vl-281" edge="1">
          <mxGeometry relative="1" as="geometry" />
        </mxCell>
        <mxCell id="_nmo6AtYuHJvuhX7b1Vl-277" value="chegada de&lt;div&gt;produto&lt;/div&gt;" style="rhombus;whiteSpace=wrap;html=1;fillColor=#d5e8d4;strokeColor=#82b366;" parent="_nmo6AtYuHJvuhX7b1Vl-301" vertex="1">
          <mxGeometry x="230" y="170" width="80" height="80" as="geometry" />
        </mxCell>
        <mxCell id="_nmo6AtYuHJvuhX7b1Vl-278" value="" style="edgeStyle=orthogonalEdgeStyle;rounded=0;orthogonalLoop=1;jettySize=auto;html=1;" parent="_nmo6AtYuHJvuhX7b1Vl-301" source="_nmo6AtYuHJvuhX7b1Vl-279" edge="1">
          <mxGeometry relative="1" as="geometry">
            <mxPoint x="570" y="330" as="targetPoint" />
          </mxGeometry>
        </mxCell>
        <mxCell id="_nmo6AtYuHJvuhX7b1Vl-279" value="Saida de produto" style="rounded=1;whiteSpace=wrap;html=1;fillColor=#dae8fc;strokeColor=#6c8ebf;" parent="_nmo6AtYuHJvuhX7b1Vl-301" vertex="1">
          <mxGeometry x="370" y="180" width="120" height="60" as="geometry" />
        </mxCell>
        <mxCell id="_nmo6AtYuHJvuhX7b1Vl-280" value="" style="edgeStyle=orthogonalEdgeStyle;rounded=0;orthogonalLoop=1;jettySize=auto;html=1;" parent="_nmo6AtYuHJvuhX7b1Vl-301" source="_nmo6AtYuHJvuhX7b1Vl-281" target="_nmo6AtYuHJvuhX7b1Vl-284" edge="1">
          <mxGeometry relative="1" as="geometry" />
        </mxCell>
        <mxCell id="_nmo6AtYuHJvuhX7b1Vl-281" value="Entrada de produto" style="rounded=1;whiteSpace=wrap;html=1;fillColor=#dae8fc;strokeColor=#6c8ebf;" parent="_nmo6AtYuHJvuhX7b1Vl-301" vertex="1">
          <mxGeometry x="210" y="340" width="120" height="60" as="geometry" />
        </mxCell>
        <mxCell id="_nmo6AtYuHJvuhX7b1Vl-282" value="não" style="edgeStyle=orthogonalEdgeStyle;rounded=0;orthogonalLoop=1;jettySize=auto;html=1;" parent="_nmo6AtYuHJvuhX7b1Vl-301" source="_nmo6AtYuHJvuhX7b1Vl-284" target="_nmo6AtYuHJvuhX7b1Vl-286" edge="1">
          <mxGeometry relative="1" as="geometry" />
        </mxCell>
        <mxCell id="_nmo6AtYuHJvuhX7b1Vl-283" value="sim" style="edgeStyle=orthogonalEdgeStyle;rounded=0;orthogonalLoop=1;jettySize=auto;html=1;" parent="_nmo6AtYuHJvuhX7b1Vl-301" source="_nmo6AtYuHJvuhX7b1Vl-284" target="_nmo6AtYuHJvuhX7b1Vl-288" edge="1">
          <mxGeometry relative="1" as="geometry" />
        </mxCell>
        <mxCell id="_nmo6AtYuHJvuhX7b1Vl-284" value="Dados&lt;div&gt;validos?&lt;/div&gt;" style="rhombus;whiteSpace=wrap;html=1;fillColor=#d5e8d4;strokeColor=#82b366;" parent="_nmo6AtYuHJvuhX7b1Vl-301" vertex="1">
          <mxGeometry x="230" y="490" width="80" height="80" as="geometry" />
        </mxCell>
        <mxCell id="_nmo6AtYuHJvuhX7b1Vl-285" style="edgeStyle=orthogonalEdgeStyle;rounded=0;orthogonalLoop=1;jettySize=auto;html=1;exitX=0.5;exitY=0;exitDx=0;exitDy=0;entryX=0;entryY=0.5;entryDx=0;entryDy=0;" parent="_nmo6AtYuHJvuhX7b1Vl-301" source="_nmo6AtYuHJvuhX7b1Vl-286" target="_nmo6AtYuHJvuhX7b1Vl-281" edge="1">
          <mxGeometry relative="1" as="geometry" />
        </mxCell>
        <mxCell id="_nmo6AtYuHJvuhX7b1Vl-286" value="Mostrar erro" style="rounded=1;whiteSpace=wrap;html=1;fillColor=#fff2cc;strokeColor=#d6b656;" parent="_nmo6AtYuHJvuhX7b1Vl-301" vertex="1">
          <mxGeometry y="420" width="120" height="60" as="geometry" />
        </mxCell>
        <mxCell id="_nmo6AtYuHJvuhX7b1Vl-287" style="edgeStyle=orthogonalEdgeStyle;rounded=0;orthogonalLoop=1;jettySize=auto;html=1;exitX=0.5;exitY=1;exitDx=0;exitDy=0;entryX=0;entryY=0.5;entryDx=0;entryDy=0;" parent="_nmo6AtYuHJvuhX7b1Vl-301" source="_nmo6AtYuHJvuhX7b1Vl-288" target="_nmo6AtYuHJvuhX7b1Vl-290" edge="1">
          <mxGeometry relative="1" as="geometry" />
        </mxCell>
        <mxCell id="_nmo6AtYuHJvuhX7b1Vl-288" value="Agregar ao estoque" style="rounded=1;whiteSpace=wrap;html=1;fillColor=#dae8fc;strokeColor=#6c8ebf;" parent="_nmo6AtYuHJvuhX7b1Vl-301" vertex="1">
          <mxGeometry x="210" y="660" width="120" height="60" as="geometry" />
        </mxCell>
        <mxCell id="_nmo6AtYuHJvuhX7b1Vl-289" value="" style="edgeStyle=orthogonalEdgeStyle;rounded=0;orthogonalLoop=1;jettySize=auto;html=1;" parent="_nmo6AtYuHJvuhX7b1Vl-301" source="_nmo6AtYuHJvuhX7b1Vl-290" target="_nmo6AtYuHJvuhX7b1Vl-292" edge="1">
          <mxGeometry relative="1" as="geometry" />
        </mxCell>
        <mxCell id="_nmo6AtYuHJvuhX7b1Vl-290" value="Fazer listagem" style="rounded=1;whiteSpace=wrap;html=1;fillColor=#dae8fc;strokeColor=#6c8ebf;" parent="_nmo6AtYuHJvuhX7b1Vl-301" vertex="1">
          <mxGeometry x="410" y="800" width="120" height="60" as="geometry" />
        </mxCell>
        <mxCell id="_nmo6AtYuHJvuhX7b1Vl-291" value="" style="edgeStyle=orthogonalEdgeStyle;rounded=0;orthogonalLoop=1;jettySize=auto;html=1;" parent="_nmo6AtYuHJvuhX7b1Vl-301" source="_nmo6AtYuHJvuhX7b1Vl-292" target="_nmo6AtYuHJvuhX7b1Vl-293" edge="1">
          <mxGeometry relative="1" as="geometry" />
        </mxCell>
        <mxCell id="_nmo6AtYuHJvuhX7b1Vl-292" value="Mostrar sucesso!" style="rounded=1;whiteSpace=wrap;html=1;fillColor=#e1d5e7;strokeColor=#9673a6;" parent="_nmo6AtYuHJvuhX7b1Vl-301" vertex="1">
          <mxGeometry x="410" y="940" width="120" height="60" as="geometry" />
        </mxCell>
        <mxCell id="_nmo6AtYuHJvuhX7b1Vl-293" value="FIM" style="ellipse;whiteSpace=wrap;html=1;fillColor=#f8cecc;strokeColor=#b85450;" parent="_nmo6AtYuHJvuhX7b1Vl-301" vertex="1">
          <mxGeometry x="410" y="1080" width="120" height="80" as="geometry" />
        </mxCell>
        <mxCell id="_nmo6AtYuHJvuhX7b1Vl-294" value="não" style="edgeStyle=orthogonalEdgeStyle;rounded=0;orthogonalLoop=1;jettySize=auto;html=1;" parent="_nmo6AtYuHJvuhX7b1Vl-301" source="_nmo6AtYuHJvuhX7b1Vl-296" target="_nmo6AtYuHJvuhX7b1Vl-298" edge="1">
          <mxGeometry relative="1" as="geometry" />
        </mxCell>
        <mxCell id="_nmo6AtYuHJvuhX7b1Vl-295" value="" style="edgeStyle=orthogonalEdgeStyle;rounded=0;orthogonalLoop=1;jettySize=auto;html=1;" parent="_nmo6AtYuHJvuhX7b1Vl-301" source="_nmo6AtYuHJvuhX7b1Vl-296" target="_nmo6AtYuHJvuhX7b1Vl-300" edge="1">
          <mxGeometry relative="1" as="geometry" />
        </mxCell>
        <mxCell id="_nmo6AtYuHJvuhX7b1Vl-296" value="Dados validos?" style="rhombus;whiteSpace=wrap;html=1;fillColor=#d5e8d4;strokeColor=#82b366;" parent="_nmo6AtYuHJvuhX7b1Vl-301" vertex="1">
          <mxGeometry x="530" y="330" width="80" height="80" as="geometry" />
        </mxCell>
        <mxCell id="_nmo6AtYuHJvuhX7b1Vl-297" style="edgeStyle=orthogonalEdgeStyle;rounded=0;orthogonalLoop=1;jettySize=auto;html=1;exitX=0.5;exitY=0;exitDx=0;exitDy=0;entryX=1;entryY=0.25;entryDx=0;entryDy=0;" parent="_nmo6AtYuHJvuhX7b1Vl-301" source="_nmo6AtYuHJvuhX7b1Vl-298" target="_nmo6AtYuHJvuhX7b1Vl-279" edge="1">
          <mxGeometry relative="1" as="geometry" />
        </mxCell>
        <mxCell id="_nmo6AtYuHJvuhX7b1Vl-298" value="Mostrar erro" style="rounded=1;whiteSpace=wrap;html=1;fillColor=#fff2cc;strokeColor=#d6b656;" parent="_nmo6AtYuHJvuhX7b1Vl-301" vertex="1">
          <mxGeometry x="680" y="240" width="120" height="60" as="geometry" />
        </mxCell>
        <mxCell id="_nmo6AtYuHJvuhX7b1Vl-299" style="edgeStyle=orthogonalEdgeStyle;rounded=0;orthogonalLoop=1;jettySize=auto;html=1;exitX=0;exitY=0.5;exitDx=0;exitDy=0;entryX=0.5;entryY=0;entryDx=0;entryDy=0;" parent="_nmo6AtYuHJvuhX7b1Vl-301" source="_nmo6AtYuHJvuhX7b1Vl-300" target="_nmo6AtYuHJvuhX7b1Vl-290" edge="1">
          <mxGeometry relative="1" as="geometry" />
        </mxCell>
        <mxCell id="_nmo6AtYuHJvuhX7b1Vl-300" value="Preparar para a entrega" style="rounded=1;whiteSpace=wrap;html=1;fillColor=#dae8fc;strokeColor=#6c8ebf;" parent="_nmo6AtYuHJvuhX7b1Vl-301" vertex="1">
          <mxGeometry x="510" y="500" width="120" height="60" as="geometry" />
        </mxCell>
        <mxCell id="QE2N11AFLP7gXFbt0uoY-41" value="" style="group" vertex="1" connectable="0" parent="1">
          <mxGeometry x="3490" y="5960" width="370" height="2200" as="geometry" />
        </mxCell>
        <mxCell id="QE2N11AFLP7gXFbt0uoY-4" value="" style="edgeStyle=orthogonalEdgeStyle;rounded=0;orthogonalLoop=1;jettySize=auto;html=1;" edge="1" parent="QE2N11AFLP7gXFbt0uoY-41" source="QE2N11AFLP7gXFbt0uoY-2" target="QE2N11AFLP7gXFbt0uoY-3">
          <mxGeometry relative="1" as="geometry" />
        </mxCell>
        <mxCell id="QE2N11AFLP7gXFbt0uoY-2" value="INICIO" style="ellipse;whiteSpace=wrap;html=1;" vertex="1" parent="QE2N11AFLP7gXFbt0uoY-41">
          <mxGeometry width="120" height="80" as="geometry" />
        </mxCell>
        <mxCell id="QE2N11AFLP7gXFbt0uoY-6" value="" style="edgeStyle=orthogonalEdgeStyle;rounded=0;orthogonalLoop=1;jettySize=auto;html=1;" edge="1" parent="QE2N11AFLP7gXFbt0uoY-41" source="QE2N11AFLP7gXFbt0uoY-3" target="QE2N11AFLP7gXFbt0uoY-5">
          <mxGeometry relative="1" as="geometry" />
        </mxCell>
        <mxCell id="QE2N11AFLP7gXFbt0uoY-3" value="INSERIR NOME" style="rounded=1;whiteSpace=wrap;html=1;" vertex="1" parent="QE2N11AFLP7gXFbt0uoY-41">
          <mxGeometry y="170" width="120" height="60" as="geometry" />
        </mxCell>
        <mxCell id="QE2N11AFLP7gXFbt0uoY-8" value="NÃO" style="edgeStyle=orthogonalEdgeStyle;rounded=0;orthogonalLoop=1;jettySize=auto;html=1;" edge="1" parent="QE2N11AFLP7gXFbt0uoY-41" source="QE2N11AFLP7gXFbt0uoY-5" target="QE2N11AFLP7gXFbt0uoY-7">
          <mxGeometry relative="1" as="geometry" />
        </mxCell>
        <mxCell id="QE2N11AFLP7gXFbt0uoY-10" value="" style="edgeStyle=orthogonalEdgeStyle;rounded=0;orthogonalLoop=1;jettySize=auto;html=1;" edge="1" parent="QE2N11AFLP7gXFbt0uoY-41" source="QE2N11AFLP7gXFbt0uoY-5" target="QE2N11AFLP7gXFbt0uoY-9">
          <mxGeometry relative="1" as="geometry" />
        </mxCell>
        <mxCell id="QE2N11AFLP7gXFbt0uoY-5" value="NOME CORRETO?" style="rhombus;whiteSpace=wrap;html=1;rounded=1;" vertex="1" parent="QE2N11AFLP7gXFbt0uoY-41">
          <mxGeometry x="15" y="300" width="90" height="90" as="geometry" />
        </mxCell>
        <mxCell id="QE2N11AFLP7gXFbt0uoY-11" style="edgeStyle=orthogonalEdgeStyle;rounded=0;orthogonalLoop=1;jettySize=auto;html=1;exitX=0.5;exitY=0;exitDx=0;exitDy=0;entryX=1;entryY=0.5;entryDx=0;entryDy=0;" edge="1" parent="QE2N11AFLP7gXFbt0uoY-41" source="QE2N11AFLP7gXFbt0uoY-7" target="QE2N11AFLP7gXFbt0uoY-3">
          <mxGeometry relative="1" as="geometry" />
        </mxCell>
        <mxCell id="QE2N11AFLP7gXFbt0uoY-7" value="MOSTRAR ERRO" style="whiteSpace=wrap;html=1;rounded=1;" vertex="1" parent="QE2N11AFLP7gXFbt0uoY-41">
          <mxGeometry x="250" y="230" width="120" height="60" as="geometry" />
        </mxCell>
        <mxCell id="QE2N11AFLP7gXFbt0uoY-13" value="" style="edgeStyle=orthogonalEdgeStyle;rounded=0;orthogonalLoop=1;jettySize=auto;html=1;" edge="1" parent="QE2N11AFLP7gXFbt0uoY-41" source="QE2N11AFLP7gXFbt0uoY-9" target="QE2N11AFLP7gXFbt0uoY-12">
          <mxGeometry relative="1" as="geometry" />
        </mxCell>
        <mxCell id="QE2N11AFLP7gXFbt0uoY-9" value="MOSTRAR SUCESSO" style="whiteSpace=wrap;html=1;rounded=1;" vertex="1" parent="QE2N11AFLP7gXFbt0uoY-41">
          <mxGeometry y="485" width="120" height="60" as="geometry" />
        </mxCell>
        <mxCell id="QE2N11AFLP7gXFbt0uoY-15" value="" style="edgeStyle=orthogonalEdgeStyle;rounded=0;orthogonalLoop=1;jettySize=auto;html=1;" edge="1" parent="QE2N11AFLP7gXFbt0uoY-41" source="QE2N11AFLP7gXFbt0uoY-12" target="QE2N11AFLP7gXFbt0uoY-14">
          <mxGeometry relative="1" as="geometry" />
        </mxCell>
        <mxCell id="QE2N11AFLP7gXFbt0uoY-12" value="ENDEREÇO" style="whiteSpace=wrap;html=1;rounded=1;" vertex="1" parent="QE2N11AFLP7gXFbt0uoY-41">
          <mxGeometry y="625" width="120" height="60" as="geometry" />
        </mxCell>
        <mxCell id="QE2N11AFLP7gXFbt0uoY-17" value="NÃO" style="edgeStyle=orthogonalEdgeStyle;rounded=0;orthogonalLoop=1;jettySize=auto;html=1;" edge="1" parent="QE2N11AFLP7gXFbt0uoY-41" source="QE2N11AFLP7gXFbt0uoY-14" target="QE2N11AFLP7gXFbt0uoY-16">
          <mxGeometry relative="1" as="geometry" />
        </mxCell>
        <mxCell id="QE2N11AFLP7gXFbt0uoY-20" value="" style="edgeStyle=orthogonalEdgeStyle;rounded=0;orthogonalLoop=1;jettySize=auto;html=1;" edge="1" parent="QE2N11AFLP7gXFbt0uoY-41" source="QE2N11AFLP7gXFbt0uoY-14" target="QE2N11AFLP7gXFbt0uoY-19">
          <mxGeometry relative="1" as="geometry" />
        </mxCell>
        <mxCell id="QE2N11AFLP7gXFbt0uoY-14" value="ENDEREÇO CORRETO?" style="rhombus;whiteSpace=wrap;html=1;rounded=1;" vertex="1" parent="QE2N11AFLP7gXFbt0uoY-41">
          <mxGeometry x="10" y="760" width="100" height="95" as="geometry" />
        </mxCell>
        <mxCell id="QE2N11AFLP7gXFbt0uoY-18" style="edgeStyle=orthogonalEdgeStyle;rounded=0;orthogonalLoop=1;jettySize=auto;html=1;exitX=0.5;exitY=0;exitDx=0;exitDy=0;entryX=1;entryY=0.5;entryDx=0;entryDy=0;" edge="1" parent="QE2N11AFLP7gXFbt0uoY-41" source="QE2N11AFLP7gXFbt0uoY-16" target="QE2N11AFLP7gXFbt0uoY-12">
          <mxGeometry relative="1" as="geometry" />
        </mxCell>
        <mxCell id="QE2N11AFLP7gXFbt0uoY-16" value="MOSTRAR ERRO" style="whiteSpace=wrap;html=1;rounded=1;" vertex="1" parent="QE2N11AFLP7gXFbt0uoY-41">
          <mxGeometry x="240" y="685" width="120" height="60" as="geometry" />
        </mxCell>
        <mxCell id="QE2N11AFLP7gXFbt0uoY-22" value="" style="edgeStyle=orthogonalEdgeStyle;rounded=0;orthogonalLoop=1;jettySize=auto;html=1;" edge="1" parent="QE2N11AFLP7gXFbt0uoY-41" source="QE2N11AFLP7gXFbt0uoY-19" target="QE2N11AFLP7gXFbt0uoY-21">
          <mxGeometry relative="1" as="geometry" />
        </mxCell>
        <mxCell id="QE2N11AFLP7gXFbt0uoY-19" value="MOSTRAR SUCESSO" style="whiteSpace=wrap;html=1;rounded=1;" vertex="1" parent="QE2N11AFLP7gXFbt0uoY-41">
          <mxGeometry y="952.5" width="120" height="60" as="geometry" />
        </mxCell>
        <mxCell id="QE2N11AFLP7gXFbt0uoY-24" value="" style="edgeStyle=orthogonalEdgeStyle;rounded=0;orthogonalLoop=1;jettySize=auto;html=1;" edge="1" parent="QE2N11AFLP7gXFbt0uoY-41" source="QE2N11AFLP7gXFbt0uoY-21" target="QE2N11AFLP7gXFbt0uoY-23">
          <mxGeometry relative="1" as="geometry" />
        </mxCell>
        <mxCell id="QE2N11AFLP7gXFbt0uoY-21" value="INSERIR CPF" style="whiteSpace=wrap;html=1;rounded=1;" vertex="1" parent="QE2N11AFLP7gXFbt0uoY-41">
          <mxGeometry y="1092.5" width="120" height="60" as="geometry" />
        </mxCell>
        <mxCell id="QE2N11AFLP7gXFbt0uoY-26" value="NÃO" style="edgeStyle=orthogonalEdgeStyle;rounded=0;orthogonalLoop=1;jettySize=auto;html=1;" edge="1" parent="QE2N11AFLP7gXFbt0uoY-41" source="QE2N11AFLP7gXFbt0uoY-23" target="QE2N11AFLP7gXFbt0uoY-25">
          <mxGeometry relative="1" as="geometry" />
        </mxCell>
        <mxCell id="QE2N11AFLP7gXFbt0uoY-29" value="" style="edgeStyle=orthogonalEdgeStyle;rounded=0;orthogonalLoop=1;jettySize=auto;html=1;" edge="1" parent="QE2N11AFLP7gXFbt0uoY-41" source="QE2N11AFLP7gXFbt0uoY-23" target="QE2N11AFLP7gXFbt0uoY-28">
          <mxGeometry relative="1" as="geometry" />
        </mxCell>
        <mxCell id="QE2N11AFLP7gXFbt0uoY-23" value="CPF VALIDO?" style="rhombus;whiteSpace=wrap;html=1;rounded=1;" vertex="1" parent="QE2N11AFLP7gXFbt0uoY-41">
          <mxGeometry x="10" y="1222.5" width="100" height="97.5" as="geometry" />
        </mxCell>
        <mxCell id="QE2N11AFLP7gXFbt0uoY-27" style="edgeStyle=orthogonalEdgeStyle;rounded=0;orthogonalLoop=1;jettySize=auto;html=1;exitX=0.5;exitY=0;exitDx=0;exitDy=0;entryX=1;entryY=0.5;entryDx=0;entryDy=0;" edge="1" parent="QE2N11AFLP7gXFbt0uoY-41" source="QE2N11AFLP7gXFbt0uoY-25" target="QE2N11AFLP7gXFbt0uoY-21">
          <mxGeometry relative="1" as="geometry" />
        </mxCell>
        <mxCell id="QE2N11AFLP7gXFbt0uoY-25" value="MOSTRAR ERRO" style="whiteSpace=wrap;html=1;rounded=1;" vertex="1" parent="QE2N11AFLP7gXFbt0uoY-41">
          <mxGeometry x="250" y="1152.5" width="120" height="60" as="geometry" />
        </mxCell>
        <mxCell id="QE2N11AFLP7gXFbt0uoY-31" value="" style="edgeStyle=orthogonalEdgeStyle;rounded=0;orthogonalLoop=1;jettySize=auto;html=1;" edge="1" parent="QE2N11AFLP7gXFbt0uoY-41" source="QE2N11AFLP7gXFbt0uoY-28" target="QE2N11AFLP7gXFbt0uoY-30">
          <mxGeometry relative="1" as="geometry" />
        </mxCell>
        <mxCell id="QE2N11AFLP7gXFbt0uoY-28" value="MOSTRAR SUCESSO" style="whiteSpace=wrap;html=1;rounded=1;" vertex="1" parent="QE2N11AFLP7gXFbt0uoY-41">
          <mxGeometry y="1418.75" width="120" height="60" as="geometry" />
        </mxCell>
        <mxCell id="QE2N11AFLP7gXFbt0uoY-33" value="" style="edgeStyle=orthogonalEdgeStyle;rounded=0;orthogonalLoop=1;jettySize=auto;html=1;" edge="1" parent="QE2N11AFLP7gXFbt0uoY-41" source="QE2N11AFLP7gXFbt0uoY-30" target="QE2N11AFLP7gXFbt0uoY-32">
          <mxGeometry relative="1" as="geometry" />
        </mxCell>
        <mxCell id="QE2N11AFLP7gXFbt0uoY-30" value="INSERIR REFERENCIA" style="rounded=1;whiteSpace=wrap;html=1;" vertex="1" parent="QE2N11AFLP7gXFbt0uoY-41">
          <mxGeometry y="1558.75" width="120" height="60" as="geometry" />
        </mxCell>
        <mxCell id="QE2N11AFLP7gXFbt0uoY-35" value="" style="edgeStyle=orthogonalEdgeStyle;rounded=0;orthogonalLoop=1;jettySize=auto;html=1;" edge="1" parent="QE2N11AFLP7gXFbt0uoY-41" source="QE2N11AFLP7gXFbt0uoY-32" target="QE2N11AFLP7gXFbt0uoY-34">
          <mxGeometry relative="1" as="geometry" />
        </mxCell>
        <mxCell id="QE2N11AFLP7gXFbt0uoY-32" value="MOSTRAR SUCESSO" style="whiteSpace=wrap;html=1;rounded=1;" vertex="1" parent="QE2N11AFLP7gXFbt0uoY-41">
          <mxGeometry y="1698.75" width="120" height="60" as="geometry" />
        </mxCell>
        <mxCell id="QE2N11AFLP7gXFbt0uoY-37" value="" style="edgeStyle=orthogonalEdgeStyle;rounded=0;orthogonalLoop=1;jettySize=auto;html=1;" edge="1" parent="QE2N11AFLP7gXFbt0uoY-41" source="QE2N11AFLP7gXFbt0uoY-34" target="QE2N11AFLP7gXFbt0uoY-36">
          <mxGeometry relative="1" as="geometry" />
        </mxCell>
        <mxCell id="QE2N11AFLP7gXFbt0uoY-34" value="ATUALIZAR DADOS E ENVIAR PRA ENTREGA" style="whiteSpace=wrap;html=1;rounded=1;" vertex="1" parent="QE2N11AFLP7gXFbt0uoY-41">
          <mxGeometry y="1838.75" width="120" height="60" as="geometry" />
        </mxCell>
        <mxCell id="QE2N11AFLP7gXFbt0uoY-39" value="" style="edgeStyle=orthogonalEdgeStyle;rounded=0;orthogonalLoop=1;jettySize=auto;html=1;" edge="1" parent="QE2N11AFLP7gXFbt0uoY-41" source="QE2N11AFLP7gXFbt0uoY-36">
          <mxGeometry relative="1" as="geometry">
            <mxPoint x="60" y="2118.75" as="targetPoint" />
          </mxGeometry>
        </mxCell>
        <mxCell id="QE2N11AFLP7gXFbt0uoY-36" value="MOSTRAR SUCESSO" style="whiteSpace=wrap;html=1;rounded=1;" vertex="1" parent="QE2N11AFLP7gXFbt0uoY-41">
          <mxGeometry y="1978.75" width="120" height="60" as="geometry" />
        </mxCell>
        <mxCell id="QE2N11AFLP7gXFbt0uoY-40" value="FIM" style="ellipse;whiteSpace=wrap;html=1;" vertex="1" parent="QE2N11AFLP7gXFbt0uoY-41">
          <mxGeometry y="2120" width="120" height="80" as="geometry" />
        </mxCell>
        <mxCell id="QE2N11AFLP7gXFbt0uoY-44" value="&lt;font style=&quot;font-size: 34px;&quot;&gt;ENTREGA&lt;/font&gt;" style="swimlane;whiteSpace=wrap;html=1;startSize=80;" vertex="1" parent="1">
          <mxGeometry x="3440" y="5840" width="450" height="2360" as="geometry" />
        </mxCell>
        <mxCell id="QE2N11AFLP7gXFbt0uoY-45" value="&lt;font style=&quot;font-size: 31px;&quot;&gt;FORNECEDOR&lt;/font&gt;" style="swimlane;whiteSpace=wrap;html=1;startSize=60;" vertex="1" parent="1">
          <mxGeometry x="150" y="2670" width="2420" height="1360" as="geometry" />
        </mxCell>
        <mxCell id="QE2N11AFLP7gXFbt0uoY-46" value="&lt;font style=&quot;font-size: 35px;&quot;&gt;CONFECÇÃO&lt;/font&gt;" style="swimlane;whiteSpace=wrap;html=1;startSize=100;" vertex="1" parent="1">
          <mxGeometry x="90" y="4110" width="2110" height="1010" as="geometry" />
        </mxCell>
        <mxCell id="QE2N11AFLP7gXFbt0uoY-173" value="" style="edgeStyle=orthogonalEdgeStyle;rounded=0;orthogonalLoop=1;jettySize=auto;html=1;" edge="1" parent="QE2N11AFLP7gXFbt0uoY-46" source="QE2N11AFLP7gXFbt0uoY-171" target="QE2N11AFLP7gXFbt0uoY-172">
          <mxGeometry relative="1" as="geometry" />
        </mxCell>
        <mxCell id="QE2N11AFLP7gXFbt0uoY-171" value="INICIO" style="ellipse;whiteSpace=wrap;html=1;" vertex="1" parent="QE2N11AFLP7gXFbt0uoY-46">
          <mxGeometry x="1140" y="140" width="120" height="80" as="geometry" />
        </mxCell>
        <mxCell id="QE2N11AFLP7gXFbt0uoY-175" value="" style="edgeStyle=orthogonalEdgeStyle;rounded=0;orthogonalLoop=1;jettySize=auto;html=1;" edge="1" parent="QE2N11AFLP7gXFbt0uoY-46" source="QE2N11AFLP7gXFbt0uoY-172" target="QE2N11AFLP7gXFbt0uoY-174">
          <mxGeometry relative="1" as="geometry" />
        </mxCell>
        <mxCell id="QE2N11AFLP7gXFbt0uoY-172" value="INSERIR ARQUIVO&amp;nbsp;" style="rounded=1;whiteSpace=wrap;html=1;" vertex="1" parent="QE2N11AFLP7gXFbt0uoY-46">
          <mxGeometry x="1140" y="310" width="120" height="60" as="geometry" />
        </mxCell>
        <mxCell id="QE2N11AFLP7gXFbt0uoY-177" value="NÃO" style="edgeStyle=orthogonalEdgeStyle;rounded=0;orthogonalLoop=1;jettySize=auto;html=1;" edge="1" parent="QE2N11AFLP7gXFbt0uoY-46" source="QE2N11AFLP7gXFbt0uoY-174" target="QE2N11AFLP7gXFbt0uoY-176">
          <mxGeometry relative="1" as="geometry" />
        </mxCell>
        <mxCell id="QE2N11AFLP7gXFbt0uoY-180" value="SIM" style="edgeStyle=orthogonalEdgeStyle;rounded=0;orthogonalLoop=1;jettySize=auto;html=1;" edge="1" parent="QE2N11AFLP7gXFbt0uoY-46" source="QE2N11AFLP7gXFbt0uoY-174" target="QE2N11AFLP7gXFbt0uoY-179">
          <mxGeometry relative="1" as="geometry" />
        </mxCell>
        <mxCell id="QE2N11AFLP7gXFbt0uoY-174" value="VALIDO?" style="rhombus;whiteSpace=wrap;html=1;rounded=1;" vertex="1" parent="QE2N11AFLP7gXFbt0uoY-46">
          <mxGeometry x="1160" y="440" width="80" height="80" as="geometry" />
        </mxCell>
        <mxCell id="QE2N11AFLP7gXFbt0uoY-178" style="edgeStyle=orthogonalEdgeStyle;rounded=0;orthogonalLoop=1;jettySize=auto;html=1;exitX=0.5;exitY=0;exitDx=0;exitDy=0;" edge="1" parent="QE2N11AFLP7gXFbt0uoY-46" source="QE2N11AFLP7gXFbt0uoY-176" target="QE2N11AFLP7gXFbt0uoY-172">
          <mxGeometry relative="1" as="geometry" />
        </mxCell>
        <mxCell id="QE2N11AFLP7gXFbt0uoY-176" value="RE-INSERIR O ARQUIVO" style="rounded=1;whiteSpace=wrap;html=1;" vertex="1" parent="QE2N11AFLP7gXFbt0uoY-46">
          <mxGeometry x="1380" y="370" width="120" height="60" as="geometry" />
        </mxCell>
        <mxCell id="QE2N11AFLP7gXFbt0uoY-182" value="" style="edgeStyle=orthogonalEdgeStyle;rounded=0;orthogonalLoop=1;jettySize=auto;html=1;" edge="1" parent="QE2N11AFLP7gXFbt0uoY-46" source="QE2N11AFLP7gXFbt0uoY-179" target="QE2N11AFLP7gXFbt0uoY-181">
          <mxGeometry relative="1" as="geometry" />
        </mxCell>
        <mxCell id="QE2N11AFLP7gXFbt0uoY-179" value="ANILZE PEDIDO" style="rounded=1;whiteSpace=wrap;html=1;" vertex="1" parent="QE2N11AFLP7gXFbt0uoY-46">
          <mxGeometry x="1140" y="610" width="120" height="60" as="geometry" />
        </mxCell>
        <mxCell id="QE2N11AFLP7gXFbt0uoY-183" value="N&#39;AO" style="edgeStyle=orthogonalEdgeStyle;rounded=0;orthogonalLoop=1;jettySize=auto;html=1;exitX=1;exitY=0.5;exitDx=0;exitDy=0;entryX=0.75;entryY=1;entryDx=0;entryDy=0;" edge="1" parent="QE2N11AFLP7gXFbt0uoY-46" source="QE2N11AFLP7gXFbt0uoY-181" target="QE2N11AFLP7gXFbt0uoY-176">
          <mxGeometry relative="1" as="geometry" />
        </mxCell>
        <mxCell id="QE2N11AFLP7gXFbt0uoY-185" value="SIM" style="edgeStyle=orthogonalEdgeStyle;rounded=0;orthogonalLoop=1;jettySize=auto;html=1;" edge="1" parent="QE2N11AFLP7gXFbt0uoY-46" source="QE2N11AFLP7gXFbt0uoY-181" target="QE2N11AFLP7gXFbt0uoY-184">
          <mxGeometry relative="1" as="geometry">
            <Array as="points">
              <mxPoint x="1200" y="930" />
            </Array>
          </mxGeometry>
        </mxCell>
        <mxCell id="QE2N11AFLP7gXFbt0uoY-181" value="CORRETO?" style="rhombus;whiteSpace=wrap;html=1;rounded=1;" vertex="1" parent="QE2N11AFLP7gXFbt0uoY-46">
          <mxGeometry x="1160" y="740" width="80" height="80" as="geometry" />
        </mxCell>
        <mxCell id="QE2N11AFLP7gXFbt0uoY-187" value="" style="edgeStyle=orthogonalEdgeStyle;rounded=0;orthogonalLoop=1;jettySize=auto;html=1;" edge="1" parent="QE2N11AFLP7gXFbt0uoY-46" source="QE2N11AFLP7gXFbt0uoY-184" target="QE2N11AFLP7gXFbt0uoY-186">
          <mxGeometry relative="1" as="geometry" />
        </mxCell>
        <mxCell id="QE2N11AFLP7gXFbt0uoY-184" value="CONSULTAR RECEITA" style="rounded=1;whiteSpace=wrap;html=1;" vertex="1" parent="QE2N11AFLP7gXFbt0uoY-46">
          <mxGeometry x="1500" y="900" width="120" height="60" as="geometry" />
        </mxCell>
        <mxCell id="QE2N11AFLP7gXFbt0uoY-189" value="" style="edgeStyle=orthogonalEdgeStyle;rounded=0;orthogonalLoop=1;jettySize=auto;html=1;" edge="1" parent="QE2N11AFLP7gXFbt0uoY-46" source="QE2N11AFLP7gXFbt0uoY-186" target="QE2N11AFLP7gXFbt0uoY-188">
          <mxGeometry relative="1" as="geometry" />
        </mxCell>
        <mxCell id="QE2N11AFLP7gXFbt0uoY-186" value="ENVIAR O MATERIAL E FINALIZAR" style="rounded=1;whiteSpace=wrap;html=1;" vertex="1" parent="QE2N11AFLP7gXFbt0uoY-46">
          <mxGeometry x="1700" y="900" width="120" height="60" as="geometry" />
        </mxCell>
        <mxCell id="QE2N11AFLP7gXFbt0uoY-188" value="FIM" style="ellipse;whiteSpace=wrap;html=1;" vertex="1" parent="QE2N11AFLP7gXFbt0uoY-46">
          <mxGeometry x="1700" y="750" width="120" height="80" as="geometry" />
        </mxCell>
        <mxCell id="QE2N11AFLP7gXFbt0uoY-109" value="" style="edgeStyle=orthogonalEdgeStyle;rounded=0;orthogonalLoop=1;jettySize=auto;html=1;" edge="1" parent="1" source="QE2N11AFLP7gXFbt0uoY-110" target="QE2N11AFLP7gXFbt0uoY-112">
          <mxGeometry relative="1" as="geometry" />
        </mxCell>
        <mxCell id="QE2N11AFLP7gXFbt0uoY-110" value="INICIO" style="ellipse;whiteSpace=wrap;html=1;fillColor=#f8cecc;strokeColor=#b85450;" vertex="1" parent="1">
          <mxGeometry x="-80" y="5450" width="120" height="80" as="geometry" />
        </mxCell>
        <mxCell id="QE2N11AFLP7gXFbt0uoY-111" value="" style="edgeStyle=orthogonalEdgeStyle;rounded=0;orthogonalLoop=1;jettySize=auto;html=1;" edge="1" parent="1" source="QE2N11AFLP7gXFbt0uoY-112" target="QE2N11AFLP7gXFbt0uoY-114">
          <mxGeometry relative="1" as="geometry" />
        </mxCell>
        <mxCell id="QE2N11AFLP7gXFbt0uoY-112" value="CADASTAR COSTUREIRO" style="rounded=1;whiteSpace=wrap;html=1;fillColor=#dae8fc;strokeColor=#6c8ebf;" vertex="1" parent="1">
          <mxGeometry x="-80" y="5620" width="120" height="60" as="geometry" />
        </mxCell>
        <mxCell id="QE2N11AFLP7gXFbt0uoY-113" value="" style="edgeStyle=orthogonalEdgeStyle;rounded=0;orthogonalLoop=1;jettySize=auto;html=1;" edge="1" parent="1" source="QE2N11AFLP7gXFbt0uoY-114" target="QE2N11AFLP7gXFbt0uoY-117">
          <mxGeometry relative="1" as="geometry" />
        </mxCell>
        <mxCell id="QE2N11AFLP7gXFbt0uoY-114" value="INSERIR E-MAIL" style="rounded=1;whiteSpace=wrap;html=1;fillColor=#dae8fc;strokeColor=#6c8ebf;" vertex="1" parent="1">
          <mxGeometry x="-80" y="5760" width="120" height="60" as="geometry" />
        </mxCell>
        <mxCell id="QE2N11AFLP7gXFbt0uoY-115" value="NÃO" style="edgeStyle=orthogonalEdgeStyle;rounded=0;orthogonalLoop=1;jettySize=auto;html=1;exitX=1;exitY=0.5;exitDx=0;exitDy=0;entryX=0.5;entryY=1;entryDx=0;entryDy=0;" edge="1" parent="1" source="QE2N11AFLP7gXFbt0uoY-117" target="QE2N11AFLP7gXFbt0uoY-119">
          <mxGeometry relative="1" as="geometry" />
        </mxCell>
        <mxCell id="QE2N11AFLP7gXFbt0uoY-116" value="SIM" style="edgeStyle=orthogonalEdgeStyle;rounded=0;orthogonalLoop=1;jettySize=auto;html=1;" edge="1" parent="1" source="QE2N11AFLP7gXFbt0uoY-117" target="QE2N11AFLP7gXFbt0uoY-121">
          <mxGeometry relative="1" as="geometry" />
        </mxCell>
        <mxCell id="QE2N11AFLP7gXFbt0uoY-117" value="E-MAIL VALIDO?" style="rhombus;whiteSpace=wrap;html=1;fillColor=#d5e8d4;strokeColor=#82b366;" vertex="1" parent="1">
          <mxGeometry x="-60" y="5880" width="80" height="80" as="geometry" />
        </mxCell>
        <mxCell id="QE2N11AFLP7gXFbt0uoY-118" style="edgeStyle=orthogonalEdgeStyle;rounded=0;orthogonalLoop=1;jettySize=auto;html=1;exitX=0.5;exitY=0;exitDx=0;exitDy=0;entryX=1;entryY=0.5;entryDx=0;entryDy=0;" edge="1" parent="1" source="QE2N11AFLP7gXFbt0uoY-119" target="QE2N11AFLP7gXFbt0uoY-114">
          <mxGeometry relative="1" as="geometry" />
        </mxCell>
        <mxCell id="QE2N11AFLP7gXFbt0uoY-119" value="MOSTRAR ERRO" style="rounded=1;whiteSpace=wrap;html=1;fillColor=#fff2cc;strokeColor=#d6b656;" vertex="1" parent="1">
          <mxGeometry x="110" y="5820" width="120" height="60" as="geometry" />
        </mxCell>
        <mxCell id="QE2N11AFLP7gXFbt0uoY-120" value="" style="edgeStyle=orthogonalEdgeStyle;rounded=0;orthogonalLoop=1;jettySize=auto;html=1;" edge="1" parent="1" source="QE2N11AFLP7gXFbt0uoY-121" target="QE2N11AFLP7gXFbt0uoY-123">
          <mxGeometry relative="1" as="geometry" />
        </mxCell>
        <mxCell id="QE2N11AFLP7gXFbt0uoY-121" value="MOSTRAR SUCESSO" style="rounded=1;whiteSpace=wrap;html=1;fillColor=#e1d5e7;strokeColor=#9673a6;" vertex="1" parent="1">
          <mxGeometry x="-80" y="6050" width="120" height="60" as="geometry" />
        </mxCell>
        <mxCell id="QE2N11AFLP7gXFbt0uoY-122" value="" style="edgeStyle=orthogonalEdgeStyle;rounded=0;orthogonalLoop=1;jettySize=auto;html=1;" edge="1" parent="1" source="QE2N11AFLP7gXFbt0uoY-123" target="QE2N11AFLP7gXFbt0uoY-126">
          <mxGeometry relative="1" as="geometry" />
        </mxCell>
        <mxCell id="QE2N11AFLP7gXFbt0uoY-123" value="INSERIR SENHA" style="rounded=1;whiteSpace=wrap;html=1;fillColor=#dae8fc;strokeColor=#6c8ebf;" vertex="1" parent="1">
          <mxGeometry x="-80" y="6190" width="120" height="60" as="geometry" />
        </mxCell>
        <mxCell id="QE2N11AFLP7gXFbt0uoY-124" value="NÃO" style="edgeStyle=orthogonalEdgeStyle;rounded=0;orthogonalLoop=1;jettySize=auto;html=1;exitX=1;exitY=0.5;exitDx=0;exitDy=0;entryX=0.5;entryY=1;entryDx=0;entryDy=0;" edge="1" parent="1" source="QE2N11AFLP7gXFbt0uoY-126" target="QE2N11AFLP7gXFbt0uoY-128">
          <mxGeometry relative="1" as="geometry" />
        </mxCell>
        <mxCell id="QE2N11AFLP7gXFbt0uoY-125" value="SIM" style="edgeStyle=orthogonalEdgeStyle;rounded=0;orthogonalLoop=1;jettySize=auto;html=1;" edge="1" parent="1" source="QE2N11AFLP7gXFbt0uoY-126" target="QE2N11AFLP7gXFbt0uoY-130">
          <mxGeometry relative="1" as="geometry" />
        </mxCell>
        <mxCell id="QE2N11AFLP7gXFbt0uoY-126" value="SENHA VALIDA?" style="rhombus;whiteSpace=wrap;html=1;fillColor=#d5e8d4;strokeColor=#82b366;" vertex="1" parent="1">
          <mxGeometry x="-60" y="6320" width="80" height="80" as="geometry" />
        </mxCell>
        <mxCell id="QE2N11AFLP7gXFbt0uoY-127" style="edgeStyle=orthogonalEdgeStyle;rounded=0;orthogonalLoop=1;jettySize=auto;html=1;exitX=0.5;exitY=0;exitDx=0;exitDy=0;entryX=1;entryY=0.5;entryDx=0;entryDy=0;" edge="1" parent="1" source="QE2N11AFLP7gXFbt0uoY-128" target="QE2N11AFLP7gXFbt0uoY-123">
          <mxGeometry relative="1" as="geometry" />
        </mxCell>
        <mxCell id="QE2N11AFLP7gXFbt0uoY-128" value="MOSTRAR ERRO" style="rounded=1;whiteSpace=wrap;html=1;fillColor=#fff2cc;strokeColor=#d6b656;" vertex="1" parent="1">
          <mxGeometry x="110" y="6260" width="120" height="60" as="geometry" />
        </mxCell>
        <mxCell id="QE2N11AFLP7gXFbt0uoY-129" value="" style="edgeStyle=orthogonalEdgeStyle;rounded=0;orthogonalLoop=1;jettySize=auto;html=1;" edge="1" parent="1" source="QE2N11AFLP7gXFbt0uoY-130" target="QE2N11AFLP7gXFbt0uoY-131">
          <mxGeometry relative="1" as="geometry" />
        </mxCell>
        <mxCell id="QE2N11AFLP7gXFbt0uoY-130" value="MOSTRAR SUCESSO" style="rounded=1;whiteSpace=wrap;html=1;fillColor=#e1d5e7;strokeColor=#9673a6;" vertex="1" parent="1">
          <mxGeometry x="-80" y="6470" width="120" height="60" as="geometry" />
        </mxCell>
        <mxCell id="QE2N11AFLP7gXFbt0uoY-131" value="FIM" style="ellipse;whiteSpace=wrap;html=1;fillColor=#f8cecc;strokeColor=#b85450;" vertex="1" parent="1">
          <mxGeometry x="-80" y="6600" width="120" height="80" as="geometry" />
        </mxCell>
        <mxCell id="QE2N11AFLP7gXFbt0uoY-132" value="" style="edgeStyle=orthogonalEdgeStyle;rounded=0;orthogonalLoop=1;jettySize=auto;html=1;" edge="1" parent="1" source="QE2N11AFLP7gXFbt0uoY-133" target="QE2N11AFLP7gXFbt0uoY-135">
          <mxGeometry relative="1" as="geometry" />
        </mxCell>
        <mxCell id="QE2N11AFLP7gXFbt0uoY-133" value="INICIO" style="ellipse;whiteSpace=wrap;html=1;fillColor=#f8cecc;strokeColor=#b85450;" vertex="1" parent="1">
          <mxGeometry x="560" y="5450" width="120" height="80" as="geometry" />
        </mxCell>
        <mxCell id="QE2N11AFLP7gXFbt0uoY-134" value="" style="edgeStyle=orthogonalEdgeStyle;rounded=0;orthogonalLoop=1;jettySize=auto;html=1;" edge="1" parent="1" source="QE2N11AFLP7gXFbt0uoY-135" target="QE2N11AFLP7gXFbt0uoY-138">
          <mxGeometry relative="1" as="geometry" />
        </mxCell>
        <mxCell id="QE2N11AFLP7gXFbt0uoY-135" value="RESGATAR DADOS DO COSTUREIRO" style="rounded=1;whiteSpace=wrap;html=1;fillColor=#dae8fc;strokeColor=#6c8ebf;" vertex="1" parent="1">
          <mxGeometry x="560" y="5620" width="120" height="60" as="geometry" />
        </mxCell>
        <mxCell id="QE2N11AFLP7gXFbt0uoY-136" value="NÃO" style="edgeStyle=orthogonalEdgeStyle;rounded=0;orthogonalLoop=1;jettySize=auto;html=1;exitX=1;exitY=0.5;exitDx=0;exitDy=0;entryX=0.5;entryY=1;entryDx=0;entryDy=0;" edge="1" parent="1" source="QE2N11AFLP7gXFbt0uoY-138" target="QE2N11AFLP7gXFbt0uoY-140">
          <mxGeometry relative="1" as="geometry" />
        </mxCell>
        <mxCell id="QE2N11AFLP7gXFbt0uoY-137" value="SIM" style="edgeStyle=orthogonalEdgeStyle;rounded=0;orthogonalLoop=1;jettySize=auto;html=1;" edge="1" parent="1" source="QE2N11AFLP7gXFbt0uoY-138" target="QE2N11AFLP7gXFbt0uoY-142">
          <mxGeometry relative="1" as="geometry" />
        </mxCell>
        <mxCell id="QE2N11AFLP7gXFbt0uoY-138" value="DADOS COMPLETOS?" style="rhombus;whiteSpace=wrap;html=1;fillColor=#d5e8d4;strokeColor=#82b366;" vertex="1" parent="1">
          <mxGeometry x="565" y="5770" width="110" height="110" as="geometry" />
        </mxCell>
        <mxCell id="QE2N11AFLP7gXFbt0uoY-139" style="edgeStyle=orthogonalEdgeStyle;rounded=0;orthogonalLoop=1;jettySize=auto;html=1;exitX=0.5;exitY=0;exitDx=0;exitDy=0;entryX=1;entryY=0.5;entryDx=0;entryDy=0;" edge="1" parent="1" source="QE2N11AFLP7gXFbt0uoY-140" target="QE2N11AFLP7gXFbt0uoY-135">
          <mxGeometry relative="1" as="geometry" />
        </mxCell>
        <mxCell id="QE2N11AFLP7gXFbt0uoY-140" value="MOSTRAR ERRO" style="rounded=1;whiteSpace=wrap;html=1;fillColor=#fff2cc;strokeColor=#d6b656;" vertex="1" parent="1">
          <mxGeometry x="750" y="5710" width="120" height="60" as="geometry" />
        </mxCell>
        <mxCell id="QE2N11AFLP7gXFbt0uoY-141" value="" style="edgeStyle=orthogonalEdgeStyle;rounded=0;orthogonalLoop=1;jettySize=auto;html=1;" edge="1" parent="1" source="QE2N11AFLP7gXFbt0uoY-142" target="QE2N11AFLP7gXFbt0uoY-144">
          <mxGeometry relative="1" as="geometry" />
        </mxCell>
        <mxCell id="QE2N11AFLP7gXFbt0uoY-142" value="MOSTRAR SUCESSO" style="rounded=1;whiteSpace=wrap;html=1;fillColor=#e1d5e7;strokeColor=#9673a6;" vertex="1" parent="1">
          <mxGeometry x="560" y="5970" width="120" height="60" as="geometry" />
        </mxCell>
        <mxCell id="QE2N11AFLP7gXFbt0uoY-143" value="" style="edgeStyle=orthogonalEdgeStyle;rounded=0;orthogonalLoop=1;jettySize=auto;html=1;" edge="1" parent="1" source="QE2N11AFLP7gXFbt0uoY-144" target="QE2N11AFLP7gXFbt0uoY-145">
          <mxGeometry relative="1" as="geometry" />
        </mxCell>
        <mxCell id="QE2N11AFLP7gXFbt0uoY-144" value="REVELAR AO COSTUREIRO" style="rounded=1;whiteSpace=wrap;html=1;fillColor=#dae8fc;strokeColor=#6c8ebf;" vertex="1" parent="1">
          <mxGeometry x="560" y="6110" width="120" height="60" as="geometry" />
        </mxCell>
        <mxCell id="QE2N11AFLP7gXFbt0uoY-145" value="FIM" style="ellipse;whiteSpace=wrap;html=1;fillColor=#f8cecc;strokeColor=#b85450;" vertex="1" parent="1">
          <mxGeometry x="560" y="6240" width="120" height="80" as="geometry" />
        </mxCell>
        <mxCell id="QE2N11AFLP7gXFbt0uoY-146" value="" style="edgeStyle=orthogonalEdgeStyle;rounded=0;orthogonalLoop=1;jettySize=auto;html=1;" edge="1" parent="1" source="QE2N11AFLP7gXFbt0uoY-147" target="QE2N11AFLP7gXFbt0uoY-149">
          <mxGeometry relative="1" as="geometry" />
        </mxCell>
        <mxCell id="QE2N11AFLP7gXFbt0uoY-147" value="INICIO" style="ellipse;whiteSpace=wrap;html=1;fillColor=#f8cecc;strokeColor=#b85450;" vertex="1" parent="1">
          <mxGeometry x="1110" y="5440" width="120" height="80" as="geometry" />
        </mxCell>
        <mxCell id="QE2N11AFLP7gXFbt0uoY-148" value="" style="edgeStyle=orthogonalEdgeStyle;rounded=0;orthogonalLoop=1;jettySize=auto;html=1;" edge="1" parent="1" source="QE2N11AFLP7gXFbt0uoY-149" target="QE2N11AFLP7gXFbt0uoY-152">
          <mxGeometry relative="1" as="geometry" />
        </mxCell>
        <mxCell id="QE2N11AFLP7gXFbt0uoY-149" value="COLOCAR MATERIAL" style="rounded=1;whiteSpace=wrap;html=1;fillColor=#dae8fc;strokeColor=#6c8ebf;" vertex="1" parent="1">
          <mxGeometry x="1110" y="5610" width="120" height="60" as="geometry" />
        </mxCell>
        <mxCell id="QE2N11AFLP7gXFbt0uoY-150" value="NÃO" style="edgeStyle=orthogonalEdgeStyle;rounded=0;orthogonalLoop=1;jettySize=auto;html=1;exitX=1;exitY=0.5;exitDx=0;exitDy=0;" edge="1" parent="1" source="QE2N11AFLP7gXFbt0uoY-152">
          <mxGeometry relative="1" as="geometry">
            <mxPoint x="1210" y="5790" as="sourcePoint" />
            <mxPoint x="1365" y="5730" as="targetPoint" />
            <Array as="points">
              <mxPoint x="1210" y="5790" />
              <mxPoint x="1365" y="5790" />
            </Array>
          </mxGeometry>
        </mxCell>
        <mxCell id="QE2N11AFLP7gXFbt0uoY-151" value="SIM" style="edgeStyle=orthogonalEdgeStyle;rounded=0;orthogonalLoop=1;jettySize=auto;html=1;" edge="1" parent="1" source="QE2N11AFLP7gXFbt0uoY-152" target="QE2N11AFLP7gXFbt0uoY-156">
          <mxGeometry relative="1" as="geometry" />
        </mxCell>
        <mxCell id="QE2N11AFLP7gXFbt0uoY-152" value="MATERIAL CORRETO?" style="rhombus;whiteSpace=wrap;html=1;fillColor=#d5e8d4;strokeColor=#82b366;" vertex="1" parent="1">
          <mxGeometry x="1130" y="5755" width="80" height="80" as="geometry" />
        </mxCell>
        <mxCell id="QE2N11AFLP7gXFbt0uoY-153" style="edgeStyle=orthogonalEdgeStyle;rounded=0;orthogonalLoop=1;jettySize=auto;html=1;exitX=0.5;exitY=0;exitDx=0;exitDy=0;entryX=1;entryY=0.5;entryDx=0;entryDy=0;" edge="1" parent="1" source="QE2N11AFLP7gXFbt0uoY-154" target="QE2N11AFLP7gXFbt0uoY-149">
          <mxGeometry relative="1" as="geometry" />
        </mxCell>
        <mxCell id="QE2N11AFLP7gXFbt0uoY-154" value="INSERIR NOVAMENTE" style="rounded=1;whiteSpace=wrap;html=1;fillColor=#dae8fc;strokeColor=#6c8ebf;" vertex="1" parent="1">
          <mxGeometry x="1300" y="5670" width="120" height="60" as="geometry" />
        </mxCell>
        <mxCell id="QE2N11AFLP7gXFbt0uoY-155" value="" style="edgeStyle=orthogonalEdgeStyle;rounded=0;orthogonalLoop=1;jettySize=auto;html=1;" edge="1" parent="1" source="QE2N11AFLP7gXFbt0uoY-156" target="QE2N11AFLP7gXFbt0uoY-157">
          <mxGeometry relative="1" as="geometry" />
        </mxCell>
        <mxCell id="QE2N11AFLP7gXFbt0uoY-156" value="ENVIAR" style="rounded=1;whiteSpace=wrap;html=1;fillColor=#dae8fc;strokeColor=#6c8ebf;" vertex="1" parent="1">
          <mxGeometry x="1110" y="5925" width="120" height="60" as="geometry" />
        </mxCell>
        <mxCell id="QE2N11AFLP7gXFbt0uoY-157" value="FIM" style="ellipse;whiteSpace=wrap;html=1;fillColor=#f8cecc;strokeColor=#b85450;" vertex="1" parent="1">
          <mxGeometry x="1110" y="6080" width="120" height="80" as="geometry" />
        </mxCell>
        <mxCell id="QE2N11AFLP7gXFbt0uoY-158" value="" style="edgeStyle=orthogonalEdgeStyle;rounded=0;orthogonalLoop=1;jettySize=auto;html=1;" edge="1" parent="1" source="QE2N11AFLP7gXFbt0uoY-159" target="QE2N11AFLP7gXFbt0uoY-161">
          <mxGeometry relative="1" as="geometry" />
        </mxCell>
        <mxCell id="QE2N11AFLP7gXFbt0uoY-159" value="INICIO" style="ellipse;whiteSpace=wrap;html=1;fillColor=#f8cecc;strokeColor=#b85450;" vertex="1" parent="1">
          <mxGeometry x="1800" y="5450" width="120" height="80" as="geometry" />
        </mxCell>
        <mxCell id="QE2N11AFLP7gXFbt0uoY-160" value="" style="edgeStyle=orthogonalEdgeStyle;rounded=0;orthogonalLoop=1;jettySize=auto;html=1;" edge="1" parent="1" source="QE2N11AFLP7gXFbt0uoY-161" target="QE2N11AFLP7gXFbt0uoY-163">
          <mxGeometry relative="1" as="geometry" />
        </mxCell>
        <mxCell id="QE2N11AFLP7gXFbt0uoY-161" value="ENTRAR NA CONTA" style="rounded=1;whiteSpace=wrap;html=1;fillColor=#dae8fc;strokeColor=#6c8ebf;" vertex="1" parent="1">
          <mxGeometry x="1800" y="5620" width="120" height="60" as="geometry" />
        </mxCell>
        <mxCell id="QE2N11AFLP7gXFbt0uoY-162" value="" style="edgeStyle=orthogonalEdgeStyle;rounded=0;orthogonalLoop=1;jettySize=auto;html=1;" edge="1" parent="1" source="QE2N11AFLP7gXFbt0uoY-163" target="QE2N11AFLP7gXFbt0uoY-166">
          <mxGeometry relative="1" as="geometry" />
        </mxCell>
        <mxCell id="QE2N11AFLP7gXFbt0uoY-163" value="EXCLUIR CONTA" style="rounded=1;whiteSpace=wrap;html=1;fillColor=#dae8fc;strokeColor=#6c8ebf;" vertex="1" parent="1">
          <mxGeometry x="1800" y="5760" width="120" height="60" as="geometry" />
        </mxCell>
        <mxCell id="QE2N11AFLP7gXFbt0uoY-164" value="SIM" style="edgeStyle=orthogonalEdgeStyle;rounded=0;orthogonalLoop=1;jettySize=auto;html=1;" edge="1" parent="1" source="QE2N11AFLP7gXFbt0uoY-166" target="QE2N11AFLP7gXFbt0uoY-168">
          <mxGeometry relative="1" as="geometry" />
        </mxCell>
        <mxCell id="QE2N11AFLP7gXFbt0uoY-165" value="NÃO" style="edgeStyle=orthogonalEdgeStyle;rounded=0;orthogonalLoop=1;jettySize=auto;html=1;exitX=1;exitY=0.5;exitDx=0;exitDy=0;entryX=0.5;entryY=0;entryDx=0;entryDy=0;" edge="1" parent="1" source="QE2N11AFLP7gXFbt0uoY-166" target="QE2N11AFLP7gXFbt0uoY-169">
          <mxGeometry relative="1" as="geometry" />
        </mxCell>
        <mxCell id="QE2N11AFLP7gXFbt0uoY-166" value="DESEJA EXCLUIR?" style="rhombus;whiteSpace=wrap;html=1;fillColor=#d5e8d4;strokeColor=#82b366;" vertex="1" parent="1">
          <mxGeometry x="1820" y="5900" width="80" height="80" as="geometry" />
        </mxCell>
        <mxCell id="QE2N11AFLP7gXFbt0uoY-167" style="edgeStyle=orthogonalEdgeStyle;rounded=0;orthogonalLoop=1;jettySize=auto;html=1;exitX=1;exitY=0.5;exitDx=0;exitDy=0;entryX=0;entryY=0.5;entryDx=0;entryDy=0;" edge="1" parent="1" source="QE2N11AFLP7gXFbt0uoY-168" target="QE2N11AFLP7gXFbt0uoY-169">
          <mxGeometry relative="1" as="geometry" />
        </mxCell>
        <mxCell id="QE2N11AFLP7gXFbt0uoY-168" value="MOSTRAR SUCESSO" style="rounded=1;whiteSpace=wrap;html=1;fillColor=#e1d5e7;strokeColor=#9673a6;" vertex="1" parent="1">
          <mxGeometry x="1800" y="6070" width="120" height="60" as="geometry" />
        </mxCell>
        <mxCell id="QE2N11AFLP7gXFbt0uoY-169" value="FIM" style="ellipse;whiteSpace=wrap;html=1;fillColor=#f8cecc;strokeColor=#b85450;" vertex="1" parent="1">
          <mxGeometry x="2050" y="6060" width="120" height="80" as="geometry" />
        </mxCell>
        <mxCell id="QE2N11AFLP7gXFbt0uoY-170" value="&lt;span style=&quot;font-size: 31px;&quot;&gt;COSTORUREIRO&lt;/span&gt;" style="swimlane;whiteSpace=wrap;html=1;startSize=60;" vertex="1" parent="1">
          <mxGeometry x="-150" y="5370" width="2420" height="1360" as="geometry" />
        </mxCell>
        <mxCell id="QE2N11AFLP7gXFbt0uoY-192" value="" style="edgeStyle=orthogonalEdgeStyle;rounded=0;orthogonalLoop=1;jettySize=auto;html=1;" edge="1" parent="1" source="QE2N11AFLP7gXFbt0uoY-190" target="QE2N11AFLP7gXFbt0uoY-191">
          <mxGeometry relative="1" as="geometry" />
        </mxCell>
        <mxCell id="QE2N11AFLP7gXFbt0uoY-190" value="INICIO" style="ellipse;whiteSpace=wrap;html=1;" vertex="1" parent="1">
          <mxGeometry x="370" y="7310" width="120" height="80" as="geometry" />
        </mxCell>
        <mxCell id="QE2N11AFLP7gXFbt0uoY-214" value="" style="edgeStyle=orthogonalEdgeStyle;rounded=0;orthogonalLoop=1;jettySize=auto;html=1;" edge="1" parent="1" source="QE2N11AFLP7gXFbt0uoY-191" target="QE2N11AFLP7gXFbt0uoY-213">
          <mxGeometry relative="1" as="geometry" />
        </mxCell>
        <mxCell id="QE2N11AFLP7gXFbt0uoY-191" value="CHEGADA DO PEDIDO" style="rounded=1;whiteSpace=wrap;html=1;" vertex="1" parent="1">
          <mxGeometry x="370" y="7460" width="120" height="60" as="geometry" />
        </mxCell>
        <mxCell id="QE2N11AFLP7gXFbt0uoY-196" value="" style="edgeStyle=orthogonalEdgeStyle;rounded=0;orthogonalLoop=1;jettySize=auto;html=1;" edge="1" parent="1" source="QE2N11AFLP7gXFbt0uoY-193" target="QE2N11AFLP7gXFbt0uoY-195">
          <mxGeometry relative="1" as="geometry" />
        </mxCell>
        <mxCell id="QE2N11AFLP7gXFbt0uoY-193" value="ANALIZAR TECIDO" style="rounded=1;whiteSpace=wrap;html=1;" vertex="1" parent="1">
          <mxGeometry x="370" y="7760" width="120" height="60" as="geometry" />
        </mxCell>
        <mxCell id="QE2N11AFLP7gXFbt0uoY-198" value="" style="edgeStyle=orthogonalEdgeStyle;rounded=0;orthogonalLoop=1;jettySize=auto;html=1;" edge="1" parent="1" source="QE2N11AFLP7gXFbt0uoY-195" target="QE2N11AFLP7gXFbt0uoY-197">
          <mxGeometry relative="1" as="geometry" />
        </mxCell>
        <mxCell id="QE2N11AFLP7gXFbt0uoY-200" value="" style="edgeStyle=orthogonalEdgeStyle;rounded=0;orthogonalLoop=1;jettySize=auto;html=1;" edge="1" parent="1" source="QE2N11AFLP7gXFbt0uoY-195" target="QE2N11AFLP7gXFbt0uoY-199">
          <mxGeometry relative="1" as="geometry" />
        </mxCell>
        <mxCell id="QE2N11AFLP7gXFbt0uoY-195" value="TIPO DE CORTE" style="rhombus;whiteSpace=wrap;html=1;rounded=1;" vertex="1" parent="1">
          <mxGeometry x="390" y="7870" width="80" height="80" as="geometry" />
        </mxCell>
        <mxCell id="QE2N11AFLP7gXFbt0uoY-203" style="edgeStyle=orthogonalEdgeStyle;rounded=0;orthogonalLoop=1;jettySize=auto;html=1;exitX=0.5;exitY=1;exitDx=0;exitDy=0;entryX=1;entryY=0.5;entryDx=0;entryDy=0;" edge="1" parent="1" source="QE2N11AFLP7gXFbt0uoY-197" target="QE2N11AFLP7gXFbt0uoY-201">
          <mxGeometry relative="1" as="geometry" />
        </mxCell>
        <mxCell id="QE2N11AFLP7gXFbt0uoY-197" value="PERSONALIZADO" style="whiteSpace=wrap;html=1;rounded=1;" vertex="1" parent="1">
          <mxGeometry x="610" y="7970" width="120" height="60" as="geometry" />
        </mxCell>
        <mxCell id="QE2N11AFLP7gXFbt0uoY-202" value="" style="edgeStyle=orthogonalEdgeStyle;rounded=0;orthogonalLoop=1;jettySize=auto;html=1;" edge="1" parent="1" source="QE2N11AFLP7gXFbt0uoY-199" target="QE2N11AFLP7gXFbt0uoY-201">
          <mxGeometry relative="1" as="geometry" />
        </mxCell>
        <mxCell id="QE2N11AFLP7gXFbt0uoY-199" value="PADRÃO" style="rounded=1;whiteSpace=wrap;html=1;" vertex="1" parent="1">
          <mxGeometry x="370" y="8040" width="120" height="60" as="geometry" />
        </mxCell>
        <mxCell id="QE2N11AFLP7gXFbt0uoY-205" value="" style="edgeStyle=orthogonalEdgeStyle;rounded=0;orthogonalLoop=1;jettySize=auto;html=1;" edge="1" parent="1" source="QE2N11AFLP7gXFbt0uoY-201" target="QE2N11AFLP7gXFbt0uoY-204">
          <mxGeometry relative="1" as="geometry" />
        </mxCell>
        <mxCell id="QE2N11AFLP7gXFbt0uoY-201" value="CORTAR" style="rounded=1;whiteSpace=wrap;html=1;" vertex="1" parent="1">
          <mxGeometry x="370" y="8180" width="120" height="60" as="geometry" />
        </mxCell>
        <mxCell id="QE2N11AFLP7gXFbt0uoY-207" value="" style="edgeStyle=orthogonalEdgeStyle;rounded=0;orthogonalLoop=1;jettySize=auto;html=1;" edge="1" parent="1" source="QE2N11AFLP7gXFbt0uoY-204" target="QE2N11AFLP7gXFbt0uoY-206">
          <mxGeometry relative="1" as="geometry" />
        </mxCell>
        <mxCell id="QE2N11AFLP7gXFbt0uoY-204" value="ARQUIVAR PEDIDO" style="whiteSpace=wrap;html=1;rounded=1;" vertex="1" parent="1">
          <mxGeometry x="370" y="8320" width="120" height="60" as="geometry" />
        </mxCell>
        <mxCell id="QE2N11AFLP7gXFbt0uoY-209" value="" style="edgeStyle=orthogonalEdgeStyle;rounded=0;orthogonalLoop=1;jettySize=auto;html=1;" edge="1" parent="1" source="QE2N11AFLP7gXFbt0uoY-206" target="QE2N11AFLP7gXFbt0uoY-208">
          <mxGeometry relative="1" as="geometry" />
        </mxCell>
        <mxCell id="QE2N11AFLP7gXFbt0uoY-206" value="TRANSFORMAR EM ZIP" style="rounded=1;whiteSpace=wrap;html=1;" vertex="1" parent="1">
          <mxGeometry x="570" y="8320" width="120" height="60" as="geometry" />
        </mxCell>
        <mxCell id="QE2N11AFLP7gXFbt0uoY-211" value="" style="edgeStyle=orthogonalEdgeStyle;rounded=0;orthogonalLoop=1;jettySize=auto;html=1;" edge="1" parent="1" source="QE2N11AFLP7gXFbt0uoY-208" target="QE2N11AFLP7gXFbt0uoY-210">
          <mxGeometry relative="1" as="geometry" />
        </mxCell>
        <mxCell id="QE2N11AFLP7gXFbt0uoY-208" value="ENVIAR" style="rounded=1;whiteSpace=wrap;html=1;" vertex="1" parent="1">
          <mxGeometry x="770" y="8320" width="120" height="60" as="geometry" />
        </mxCell>
        <mxCell id="QE2N11AFLP7gXFbt0uoY-210" value="FIM" style="ellipse;whiteSpace=wrap;html=1;" vertex="1" parent="1">
          <mxGeometry x="940" y="8310" width="120" height="80" as="geometry" />
        </mxCell>
        <mxCell id="QE2N11AFLP7gXFbt0uoY-217" value="SIM" style="edgeStyle=orthogonalEdgeStyle;rounded=0;orthogonalLoop=1;jettySize=auto;html=1;exitX=1;exitY=0.5;exitDx=0;exitDy=0;entryX=0.5;entryY=0;entryDx=0;entryDy=0;" edge="1" parent="1" source="QE2N11AFLP7gXFbt0uoY-213" target="QE2N11AFLP7gXFbt0uoY-210">
          <mxGeometry relative="1" as="geometry" />
        </mxCell>
        <mxCell id="QE2N11AFLP7gXFbt0uoY-218" value="N&#39;AO" style="edgeStyle=orthogonalEdgeStyle;rounded=0;orthogonalLoop=1;jettySize=auto;html=1;" edge="1" parent="1" source="QE2N11AFLP7gXFbt0uoY-213" target="QE2N11AFLP7gXFbt0uoY-193">
          <mxGeometry relative="1" as="geometry" />
        </mxCell>
        <mxCell id="QE2N11AFLP7gXFbt0uoY-213" value="DESCARTAR?" style="rhombus;whiteSpace=wrap;html=1;rounded=1;" vertex="1" parent="1">
          <mxGeometry x="380" y="7590" width="100" height="90" as="geometry" />
        </mxCell>
        <mxCell id="QE2N11AFLP7gXFbt0uoY-219" value="&lt;font style=&quot;font-size: 28px;&quot;&gt;CORTE&lt;/font&gt;" style="swimlane;whiteSpace=wrap;html=1;startSize=90;" vertex="1" parent="1">
          <mxGeometry x="330" y="7210" width="820" height="1220" as="geometry" />
        </mxCell>
      </root>
    </mxGraphModel>
  </diagram>
</mxfile>
